<svg width="81" height="106" viewBox="0 0 81 106" fill="none" xmlns="http://www.w3.org/2000/svg">
<g clip-path="url(#clip0_2184_2)">
<path d="M71.121 34.3791L78.7962 27.2677C80.6143 25.534 80.6795 22.6534 78.9458 20.8353C77.2504 19.0594 74.4465 18.952 72.6169 20.5898L71.121 21.9745L69.2991 23.7082V32.8256L71.121 34.3752V34.3791Z" fill="#F6CDAA"/>
<path d="M43.7649 98.4845L37.9117 104.342C36.9912 105.262 35.7484 105.78 34.4481 105.78H1.59564C0.717269 105.784 0.00383567 105.074 0 104.2C0 103.862 0.107399 103.528 0.306853 103.256C3.43676 99.2785 5.24719 94.4226 5.485 89.3672C5.485 80.2498 3.64388 78.424 3.64388 71.1286C3.64388 63.8331 7.31078 58.3635 7.31078 49.2423V34.6514C7.31078 32.6377 8.94477 31.0037 10.9585 31.0037C13.9733 31.0037 16.4128 33.4547 16.4128 36.4695C16.4128 36.4695 16.4128 36.4733 16.4128 36.4772L43.7688 98.4845H43.7649Z" fill="#F6CDAA"/>
<path d="M63.8254 0H23.7044C19.6752 0 16.4089 3.26628 16.4089 7.29544V91.1891C16.4089 95.2183 19.6752 98.4846 23.7044 98.4846H63.8254C67.8546 98.4846 71.1209 95.2183 71.1209 91.1891V7.29544C71.1209 3.26628 67.8546 0 63.8254 0Z" fill="white"/>
<path d="M71.1208 71.5851L78.796 64.4737C80.6141 62.74 80.6793 59.8594 78.9456 58.0413C77.2502 56.2654 74.4464 56.158 72.6168 57.7958L71.1208 59.1805V71.5812V71.5851Z" fill="#EAB296"/>
<path d="M71.1208 59.1805L78.796 52.0692C80.6141 50.3355 80.6793 47.4549 78.9456 45.6368C77.2502 43.8609 74.4464 43.7535 72.6168 45.3913L71.1208 46.776V59.1767V59.1805Z" fill="#F6CDAA"/>
<path d="M71.1208 46.7798L78.796 39.6684C80.6141 37.9347 80.6793 35.0541 78.9456 33.236C77.2502 31.4601 74.4464 31.3527 72.6168 32.9905L71.1208 34.3752V46.7759V46.7798Z" fill="#EAB296"/>
<path d="M56.5301 0V3.64772C56.5225 5.66144 54.8961 7.28777 52.8824 7.29544H34.6438C32.6301 7.28777 31.0038 5.66144 30.9961 3.64772V0H56.5301Z" fill="#E0DFE5"/>
<path d="M54.708 93.0111H32.8217C31.8129 93.0111 30.9998 92.1941 30.9998 91.1891C30.9998 90.1842 31.8168 89.3672 32.8217 89.3672H54.708C55.7168 89.3672 56.53 90.1842 56.53 91.1891C56.53 92.1941 55.713 93.0111 54.708 93.0111Z" fill="#E0DFE5"/>
<path d="M61.3401 11.9673H26.1939C24.1285 11.9673 22.4541 13.6416 22.4541 15.7071V77.8564C22.4541 79.9218 24.1285 81.5961 26.1939 81.5961H61.3401C63.4055 81.5961 65.0799 79.9218 65.0799 77.8564V15.7071C65.0799 13.6416 63.4055 11.9673 61.3401 11.9673Z" fill="url(#paint0_linear_2184_2)"/>
<path d="M44.8617 55.1323C50.1761 54.5258 53.9927 49.726 53.3862 44.4116C52.7798 39.0972 47.98 35.2806 42.6656 35.887C37.3512 36.4935 33.5346 41.2933 34.141 46.6077C34.7475 51.9221 39.5473 55.7387 44.8617 55.1323Z" fill="white"/>
<path d="M47.0139 46.9217L43.7919 48.9699C42.5492 49.7601 40.9305 48.8318 40.9842 47.3589L41.1453 43.0361C41.199 41.5633 42.8829 40.7578 44.0643 41.6361L47.1251 43.9145C48.1531 44.6778 48.0955 46.2389 47.0139 46.9255V46.9217Z" fill="url(#paint1_linear_2184_2)"/>
</g>
<defs>
<linearGradient id="paint0_linear_2184_2" x1="27.5824" y1="16.3706" x2="76.3644" y2="108.043" gradientUnits="userSpaceOnUse">
<stop stop-color="#EC4845"/>
<stop offset="1" stop-color="#8D2B29"/>
</linearGradient>
<linearGradient id="paint1_linear_2184_2" x1="42.8368" y1="44.3326" x2="50.8649" y2="54.8116" gradientUnits="userSpaceOnUse">
<stop stop-color="#EC4845"/>
<stop offset="0.39" stop-color="#C93D3A"/>
<stop offset="1" stop-color="#8D2B29"/>
</linearGradient>
<clipPath id="clip0_2184_2">
<rect width="80.2038" height="105.78" fill="white"/>
</clipPath>
</defs>
</svg>
