<svg width="79" height="84" viewBox="0 0 79 84" fill="none" xmlns="http://www.w3.org/2000/svg">
<g clip-path="url(#clip0_2185_32)">
<path d="M34.1245 72.5141H44.8721V78.872H34.1245V72.5141Z" fill="#E0DFE5"/>
<path d="M15.5454 83.2478H63.4546V80.8645C63.4546 79.7645 62.5621 78.872 61.4621 78.872H17.5379C16.4379 78.872 15.5454 79.7645 15.5454 80.8645V83.2478Z" fill="white"/>
<path d="M3.3865 72.5141H75.6135C77.4814 72.5141 79 70.999 79 69.1276V25.698C79 23.8301 77.4849 22.3115 75.6135 22.3115H3.3865C1.51857 22.3115 0 23.8266 0 25.698V69.1276C0 70.9956 1.51511 72.5141 3.3865 72.5141Z" fill="white"/>
<path d="M39.5001 70.5148C40.3406 70.5148 41.0221 69.8333 41.0221 68.9927C41.0221 68.1521 40.3406 67.4707 39.5001 67.4707C38.6595 67.4707 37.978 68.1521 37.978 68.9927C37.978 69.8333 38.6595 70.5148 39.5001 70.5148Z" fill="#E0DFE5"/>
<path d="M4.57287 65.9936H74.4234C75.3574 65.9936 76.1149 65.2361 76.1149 64.3021V27.1474C76.1149 26.2134 75.3574 25.4559 74.4234 25.4559H4.57287C3.6389 25.4559 2.88135 26.2134 2.88135 27.1474V64.3021C2.88135 65.2361 3.6389 65.9936 4.57287 65.9936Z" fill="url(#paint0_linear_2185_32)"/>
<path d="M59.8536 40.2991H19.1464C18.2124 40.2991 17.4548 39.5415 17.4548 38.6075V1.69152C17.4514 0.757553 18.2089 0 19.1464 0H59.8536C60.7876 0 61.5451 0.757553 61.5451 1.69152V38.6041C61.5451 39.5381 60.7876 40.2956 59.8536 40.2956V40.2991Z" fill="#E6E7E8"/>
<path d="M61.5451 1.69152C61.5451 0.757553 60.7876 0 59.8536 0H19.1464C18.2124 0 17.4548 0.757553 17.4548 1.69152V6.64848H61.5486V1.69152H61.5451Z" fill="white"/>
<path d="M61.5451 38.6075C61.5451 39.5415 60.7876 40.2991 59.8536 40.2991H19.1464C18.2124 40.2991 17.4548 39.5415 17.4548 38.6075V33.6506H61.5486V38.6075H61.5451Z" fill="white"/>
<path d="M56.1905 32.1562H22.8097C21.8757 32.1562 21.1182 31.3987 21.1182 30.4647V9.83434C21.1182 8.90038 21.8757 8.14282 22.8097 8.14282H56.1905C57.1244 8.14282 57.882 8.90038 57.882 9.83434V30.4647C57.882 31.3987 57.1244 32.1562 56.1905 32.1562Z" fill="url(#paint1_linear_2185_32)"/>
<path d="M34.4255 25.4213V14.8778C34.4255 14.1029 35.2834 13.6359 35.9337 14.058L44.0662 19.3297C44.6612 19.7137 44.6612 20.5819 44.0662 20.9693L35.9337 26.2411C35.2834 26.6631 34.4255 26.1961 34.4255 25.4213Z" fill="#FFC91D"/>
<path d="M44.0696 19.3297L42.814 18.5168C42.7967 18.8108 42.6548 19.0945 42.3747 19.2743L34.4255 24.425V25.4178C34.4255 26.1926 35.2834 26.6596 35.9337 26.2376L44.0662 20.9659C44.6612 20.5819 44.6612 19.7136 44.0662 19.3262L44.0696 19.3297Z" fill="#FFA91A"/>
<path d="M32.2012 38.6871H29.977C29.7279 38.6871 29.5308 38.4865 29.5308 38.2409V36.0167C29.5308 35.7676 29.7314 35.5704 29.977 35.5704H32.2012C32.4503 35.5704 32.6475 35.7711 32.6475 36.0167V38.2409C32.6475 38.4865 32.4468 38.6871 32.2012 38.6871Z" fill="#E6E7E8"/>
<path d="M32.2012 4.73211H29.977C29.7279 4.73211 29.5308 4.53148 29.5308 4.28588V2.06165C29.5308 1.81259 29.7314 1.61542 29.977 1.61542H32.2012C32.4503 1.61542 32.6475 1.81605 32.6475 2.06165V4.28588C32.6475 4.53494 32.4468 4.73211 32.2012 4.73211Z" fill="#E6E7E8"/>
<path d="M23.7886 4.73211H21.5644C21.3153 4.73211 21.1182 4.53148 21.1182 4.28588V2.06165C21.1182 1.81259 21.3188 1.61542 21.5644 1.61542H23.7886C24.0377 1.61542 24.2349 1.81605 24.2349 2.06165V4.28588C24.2349 4.53494 24.0342 4.73211 23.7886 4.73211Z" fill="#E6E7E8"/>
<path d="M23.7886 38.6871H21.5644C21.3153 38.6871 21.1182 38.4865 21.1182 38.2409V36.0167C21.1182 35.7676 21.3188 35.5704 21.5644 35.5704H23.7886C24.0377 35.5704 24.2349 35.7711 24.2349 36.0167V38.2409C24.2349 38.4865 24.0342 38.6871 23.7886 38.6871Z" fill="#E6E7E8"/>
<path d="M40.6104 4.73211H38.3862C38.1371 4.73211 37.9399 4.53148 37.9399 4.28588V2.06165C37.9399 1.81259 38.1406 1.61542 38.3862 1.61542H40.6104C40.8595 1.61542 41.0566 1.81605 41.0566 2.06165V4.28588C41.0566 4.53494 40.856 4.73211 40.6104 4.73211Z" fill="#E6E7E8"/>
<path d="M40.6104 38.6871H38.3862C38.1371 38.6871 37.9399 38.4865 37.9399 38.2409V36.0167C37.9399 35.7676 38.1406 35.5704 38.3862 35.5704H40.6104C40.8595 35.5704 41.0566 35.7711 41.0566 36.0167V38.2409C41.0566 38.4865 40.856 38.6871 40.6104 38.6871Z" fill="#E6E7E8"/>
<path d="M49.023 4.73211H46.7988C46.5497 4.73211 46.3525 4.53148 46.3525 4.28588V2.06165C46.3525 1.81259 46.5532 1.61542 46.7988 1.61542H49.023C49.2721 1.61542 49.4692 1.81605 49.4692 2.06165V4.28588C49.4692 4.53494 49.2686 4.73211 49.023 4.73211Z" fill="#E6E7E8"/>
<path d="M49.023 38.6871H46.7988C46.5497 38.6871 46.3525 38.4865 46.3525 38.2409V36.0167C46.3525 35.7676 46.5532 35.5704 46.7988 35.5704H49.023C49.2721 35.5704 49.4692 35.7711 49.4692 36.0167V38.2409C49.4692 38.4865 49.2686 38.6871 49.023 38.6871Z" fill="#E6E7E8"/>
<path d="M57.4358 4.73211H55.2116C54.9625 4.73211 54.7654 4.53148 54.7654 4.28588V2.06165C54.7654 1.81259 54.966 1.61542 55.2116 1.61542H57.4358C57.6849 1.61542 57.8821 1.81605 57.8821 2.06165V4.28588C57.8821 4.53494 57.6814 4.73211 57.4358 4.73211Z" fill="#E6E7E8"/>
<path d="M57.4358 38.6871H55.2116C54.9625 38.6871 54.7654 38.4865 54.7654 38.2409V36.0167C54.7654 35.7676 54.966 35.5704 55.2116 35.5704H57.4358C57.6849 35.5704 57.8821 35.7711 57.8821 36.0167V38.2409C57.8821 38.4865 57.6814 38.6871 57.4358 38.6871Z" fill="#E6E7E8"/>
<path d="M32.6336 56.1661H39.5968C39.9704 56.1661 40.2748 55.8617 40.2748 55.4881V52.7796C40.2748 52.406 39.9704 52.1016 39.5968 52.1016H32.6336C32.26 52.1016 31.9556 52.406 31.9556 52.7796V55.4881C31.9556 55.8617 32.26 56.1661 32.6336 56.1661Z" fill="white"/>
<path d="M68.5154 51.0881H40.9529C40.5793 51.0881 40.2749 50.7837 40.2749 50.4101V47.7016C40.2749 47.328 40.5793 47.0236 40.9529 47.0236H68.5154C68.889 47.0236 69.1934 47.328 69.1934 47.7016V50.4101C69.1934 50.7837 68.889 51.0881 68.5154 51.0881Z" fill="white"/>
<path d="M31.2776 61.2442H10.4846C10.111 61.2442 9.80664 60.9398 9.80664 60.5662V57.8577C9.80664 57.4841 10.111 57.1797 10.4846 57.1797H31.2776C31.6512 57.1797 31.9556 57.4841 31.9556 57.8577V60.5662C31.9556 60.9398 31.6512 61.2442 31.2776 61.2442Z" fill="white"/>
<path d="M24.4077 61.9222C24.0341 61.9222 23.7297 61.6178 23.7297 61.2442V44.3601C23.7297 43.9865 24.0341 43.6821 24.4077 43.6821C24.7813 43.6821 25.0857 43.9865 25.0857 44.3601V61.2442C25.0857 61.6178 24.7813 61.9222 24.4077 61.9222Z" fill="white"/>
<path d="M24.4078 45.7161C25.342 45.7161 26.0994 44.9587 26.0994 44.0245C26.0994 43.0903 25.342 42.333 24.4078 42.333C23.4736 42.333 22.7163 43.0903 22.7163 44.0245C22.7163 44.9587 23.4736 45.7161 24.4078 45.7161Z" fill="white"/>
</g>
<defs>
<linearGradient id="paint0_linear_2185_32" x1="12.7987" y1="30.7069" x2="103.646" y2="81.795" gradientUnits="userSpaceOnUse">
<stop stop-color="#EC4845"/>
<stop offset="1" stop-color="#8D2B29"/>
</linearGradient>
<linearGradient id="paint1_linear_2185_32" x1="27.0264" y1="10.9862" x2="75.8038" y2="46.8195" gradientUnits="userSpaceOnUse">
<stop stop-color="#EC4845"/>
<stop offset="1" stop-color="#8D2B29"/>
</linearGradient>
<clipPath id="clip0_2185_32">
<rect width="79" height="83.2478" fill="white"/>
</clipPath>
</defs>
</svg>
