<svg width="81" height="93" viewBox="0 0 81 93" fill="none" xmlns="http://www.w3.org/2000/svg">
<g clip-path="url(#clip0_2184_15)">
<path d="M58.0923 45.6917C70.746 45.6917 81.0039 35.4633 81.0039 22.8458C81.0039 10.2284 70.746 0 58.0923 0C45.4385 0 35.1807 10.2284 35.1807 22.8458C35.1807 35.4633 45.4385 45.6917 58.0923 45.6917Z" fill="url(#paint0_linear_2184_15)"/>
<path d="M57.1304 13.9532C54.3466 14.6004 52.1063 16.7992 51.4221 19.5594C50.7339 22.3274 51.5198 25.15 53.5216 27.1071C54.2293 27.8011 54.6516 28.9083 54.6516 30.0778V30.265C54.6516 31.033 54.9878 31.7231 55.5196 32.2026V33.7347C55.5196 35.1694 56.6886 36.3351 58.1274 36.3351H59.8673C61.3061 36.3351 62.4752 35.1694 62.4752 33.7347V32.2026C63.0069 31.727 63.3431 31.033 63.3431 30.265V30.0739C63.3431 28.9239 63.7889 27.7933 64.5356 27.0486C66.0096 25.575 66.8229 23.6179 66.8229 21.5399C66.8229 16.5653 62.2015 12.7797 57.1304 13.9571V13.9532ZM60.7392 33.7269C60.7392 34.2065 60.3482 34.5924 59.8712 34.5924H58.1313C57.6504 34.5924 57.2633 34.2026 57.2633 33.7269V32.8615H60.7392V33.7269ZM63.3079 25.8206C62.2288 26.9005 61.6072 28.4482 61.6072 30.07V30.2611C61.6072 30.7406 61.2162 31.1266 60.7392 31.1266H57.2633C56.7824 31.1266 56.3954 30.7367 56.3954 30.2611V30.0739C56.3954 28.4287 55.7932 26.8927 54.7415 25.8673C53.1815 24.343 52.5755 22.1403 53.1111 19.9727C53.6389 17.8401 55.371 16.1403 57.5253 15.6374C61.5055 14.7134 65.0869 17.6725 65.0869 21.5321C65.0869 23.15 64.4574 24.6705 63.3079 25.8167V25.8206Z" fill="white"/>
<path d="M52.2434 13.5672L49.7841 11.115C49.4439 10.7758 48.8926 10.7758 48.5564 11.115C48.2162 11.4542 48.2162 12.0039 48.5564 12.3391L51.0157 14.7914C51.3558 15.1305 51.9071 15.1305 52.2434 14.7914C52.5835 14.4522 52.5835 13.9025 52.2434 13.5672Z" fill="white"/>
<path d="M48.5719 20.6665H45.0374C44.5565 20.6665 44.1694 21.0564 44.1694 21.532C44.1694 22.0076 44.5604 22.3975 45.0374 22.3975H48.5719C49.0528 22.3975 49.4399 22.0076 49.4399 21.532C49.4399 21.0564 49.0489 20.6665 48.5719 20.6665Z" fill="white"/>
<path d="M72.9694 20.6665H69.4349C68.954 20.6665 68.5669 21.0564 68.5669 21.532C68.5669 22.0076 68.9579 22.3975 69.4349 22.3975H72.9694C73.4503 22.3975 73.8374 22.0076 73.8374 21.532C73.8374 21.0564 73.4464 20.6665 72.9694 20.6665Z" fill="white"/>
<path d="M69.4504 11.115C69.1102 10.7758 68.559 10.7758 68.2227 11.115L65.7634 13.5672C65.4233 13.9064 65.4233 14.4561 65.7634 14.7914C66.1036 15.1305 66.6549 15.1305 66.9911 14.7914L69.4504 12.3391C69.7905 12 69.7905 11.4503 69.4504 11.115Z" fill="white"/>
<path d="M59.0032 6.74072C58.5223 6.74072 58.1353 7.13058 58.1353 7.60621V11.1306C58.1353 11.6101 58.5262 11.996 59.0032 11.996C59.4802 11.996 59.8712 11.6062 59.8712 11.1306V7.60621C59.8712 7.12668 59.4802 6.74072 59.0032 6.74072Z" fill="white"/>
<path d="M59.0034 17.2007C58.6476 17.2007 58.2839 17.2436 57.9203 17.3293C56.4229 17.6763 55.1678 18.9083 54.7964 20.3897C54.6791 20.8537 54.9645 21.3254 55.4298 21.4385C55.895 21.5554 56.3681 21.2708 56.4815 20.8069C56.6926 19.9531 57.4472 19.2163 58.3113 19.0174C58.542 18.9629 58.7727 18.9356 58.9955 18.9356C59.4764 18.9356 59.8635 18.5457 59.8635 18.0701C59.8635 17.5944 59.4725 17.2046 58.9955 17.2046L59.0034 17.2007Z" fill="white"/>
<path d="M6.42383 37.0289H41.7687V56.7325C41.7687 63.2549 36.4592 68.5492 29.918 68.5492H6.42383V37.0289Z" fill="url(#paint1_linear_2184_15)"/>
<path d="M36.9714 84.9039C36.7094 85.1651 36.3771 85.3405 36.0174 85.4107L28.7803 86.8415C28.6591 86.8649 28.5379 86.8766 28.4206 86.8766C27.9318 86.8766 27.4588 86.6855 27.1069 86.3347C26.669 85.898 26.4774 85.2704 26.5986 84.6622L28.0335 77.4458C28.1039 77.0872 28.2837 76.7558 28.5418 76.4946L46.3002 58.7871C47.223 57.867 48.3725 57.3134 49.5689 57.1263V37.5748C49.5689 33.0992 45.9171 29.454 41.4247 29.454H8.14418C3.65569 29.454 0 33.0953 0 37.5748V84.6427C0 89.1183 3.65178 92.7635 8.14418 92.7635H41.4247C45.9132 92.7635 49.5689 89.1222 49.5689 84.6427V72.3426L36.9753 84.9L36.9714 84.9039ZM10.5683 47.9295H12.8321C13.8604 47.9295 14.6932 48.7599 14.6932 49.7852C14.6932 50.8106 13.8604 51.641 12.8321 51.641H10.5683C9.53999 51.641 8.7072 50.8106 8.7072 49.7852C8.7072 48.7599 9.53999 47.9295 10.5683 47.9295ZM8.7072 41.7853C8.7072 40.7599 9.53999 39.9295 10.5683 39.9295H12.5545C13.5828 39.9295 14.4156 40.7599 14.4156 41.7853C14.4156 42.8106 13.5828 43.641 12.5545 43.641H10.5683C9.53999 43.641 8.7072 42.8106 8.7072 41.7853ZM12.8321 67.6408H10.5683C9.53999 67.6408 8.7072 66.8104 8.7072 65.7851C8.7072 64.7598 9.53999 63.9294 10.5683 63.9294H12.8321C13.8604 63.9294 14.6932 64.7598 14.6932 65.7851C14.6932 66.8104 13.8604 67.6408 12.8321 67.6408ZM28.1078 67.6408H19.338C18.3097 67.6408 17.477 66.8104 17.477 65.7851C17.477 64.7598 18.3097 63.9294 19.338 63.9294H28.1078C29.1361 63.9294 29.9689 64.7598 29.9689 65.7851C29.9689 66.8104 29.1361 67.6408 28.1078 67.6408ZM39.0006 59.6409H10.5683C9.53999 59.6409 8.7072 58.8105 8.7072 57.7852C8.7072 56.7598 9.53999 55.9294 10.5683 55.9294H38.9967C40.025 55.9294 40.8578 56.7598 40.8578 57.7852C40.8578 58.8105 40.025 59.6409 38.9967 59.6409H39.0006ZM39.0006 51.641H19.338C18.3097 51.641 17.477 50.8106 17.477 49.7852C17.477 48.7599 18.3097 47.9295 19.338 47.9295H39.0006C40.0289 47.9295 40.8617 48.7599 40.8617 49.7852C40.8617 50.8106 40.0289 51.641 39.0006 51.641ZM39.0006 43.641H19.338C18.3097 43.641 17.477 42.8106 17.477 41.7853C17.477 40.7599 18.3097 39.9295 19.338 39.9295H39.0006C40.0289 39.9295 40.8617 40.7599 40.8617 41.7853C40.8617 42.8106 40.0289 43.641 39.0006 43.641Z" fill="white"/>
<path d="M52.0986 64.5726C52.9744 63.6993 52.9744 62.2841 52.0986 61.4108C51.2228 60.5375 49.8036 60.5375 48.9278 61.4108L31.5681 78.7206L30.7861 82.666L34.7429 81.8863L52.1025 64.5765L52.0986 64.5726Z" fill="white"/>
</g>
<defs>
<linearGradient id="paint0_linear_2184_15" x1="35.1807" y1="22.8458" x2="81" y2="22.8458" gradientUnits="userSpaceOnUse">
<stop stop-color="#EC4845"/>
<stop offset="1" stop-color="#8D2B29"/>
</linearGradient>
<linearGradient id="paint1_linear_2184_15" x1="13.7665" y1="42.0386" x2="50.5218" y2="80.5026" gradientUnits="userSpaceOnUse">
<stop stop-color="#EC4845"/>
<stop offset="1" stop-color="#8D2B29"/>
</linearGradient>
<clipPath id="clip0_2184_15">
<rect width="81" height="92.7635" fill="white"/>
</clipPath>
</defs>
</svg>
