<svg width="248" height="250" viewBox="0 0 248 250" fill="none" xmlns="http://www.w3.org/2000/svg">
<g filter="url(#filter0_d_2162_15)">
<path d="M131.275 86.958L93.742 104.737C88.106 107.407 85.7013 114.14 88.371 119.776L104.973 154.824C107.643 160.46 114.376 162.865 120.012 160.195L157.545 142.417C163.181 139.747 165.586 133.014 162.916 127.378L146.314 92.329C143.644 86.693 136.911 84.2883 131.275 86.958Z" fill="url(#paint0_radial_2162_15)"/>
<path d="M128.738 81.6023L91.2049 99.3812C85.5689 102.051 83.1642 108.784 85.8339 114.42L102.436 149.469C105.106 155.105 111.839 157.509 117.475 154.84L155.008 137.061C160.644 134.391 163.049 127.658 160.379 122.022L143.777 86.9733C141.107 81.3373 134.374 78.9326 128.738 81.6023Z" fill="url(#paint1_radial_2162_15)"/>
<path style="mix-blend-mode:overlay" opacity="0.4" d="M154.635 136.273L117.102 154.051C111.464 156.722 104.733 154.318 102.063 148.68L102.436 149.469C105.106 155.106 111.838 157.51 117.475 154.84L155.008 137.061C160.645 134.391 163.049 127.659 160.379 122.022L160.006 121.234C162.676 126.871 160.272 133.602 154.635 136.273Z" fill="url(#paint2_linear_2162_15)"/>
<path style="mix-blend-mode:overlay" opacity="0.4" d="M91.5783 100.169L129.111 82.3906C134.749 79.7202 141.48 82.1242 144.15 87.7616L143.777 86.9733C141.106 81.336 134.375 78.932 128.738 81.6023L91.2049 99.3812C85.5676 102.051 83.1636 108.783 85.8339 114.42L86.2073 115.208C83.537 109.571 85.941 102.84 91.5783 100.169Z" fill="url(#paint3_linear_2162_15)"/>
<path d="M137.272 102.911C136.566 101.548 135.75 100.263 134.666 99.1738C132.299 96.7964 129.445 95.83 126.124 96.2227C124.483 96.4142 122.945 96.9876 121.45 97.6525C117.019 99.6134 112.642 101.687 108.325 103.87C107.025 104.528 105.773 105.251 104.673 106.22C102.138 108.437 100.912 111.216 101.109 114.595C101.172 115.729 101.427 116.831 101.794 117.898C102.287 119.302 102.888 120.663 103.518 122.011C104.738 124.621 105.971 127.225 107.205 129.829C107.401 130.245 107.605 130.656 107.809 131.068C108.307 132.065 108.808 133.068 109.348 134.045C109.633 134.556 109.932 135.06 110.27 135.538C111.575 137.401 113.185 138.888 115.366 139.673C116.334 140.025 117.332 140.258 118.359 140.298C119.751 140.345 121.118 140.119 122.454 139.719C123.102 139.524 123.741 139.29 124.357 139.025C125.144 138.686 125.932 138.348 126.706 137.981C130.71 136.084 134.765 134.275 138.683 132.195C139.839 131.579 140.934 130.871 141.904 129.989C142.777 129.196 143.5 128.285 144.073 127.256C145.232 125.009 145.512 122.653 144.982 120.19C144.659 118.688 144.083 117.272 143.458 115.879C141.495 111.518 139.473 107.177 137.271 102.929L137.272 102.911ZM139.67 115.942C140.197 117.054 140.688 118.182 141.109 119.344C141.606 120.72 141.918 122.124 141.66 123.599C141.545 124.265 141.339 124.905 141.02 125.505C140.583 126.401 139.924 127.101 139.165 127.719C138.583 128.201 137.948 128.606 137.279 128.957C133.037 131.208 128.671 133.198 124.313 135.185C123.138 135.724 121.943 136.239 120.665 136.543C119.086 136.92 117.547 136.856 116.067 136.17C115.033 135.695 114.219 134.943 113.514 134.053C112.825 133.182 112.313 132.209 111.808 131.234C111.222 130.106 110.647 128.965 110.115 127.805C108.648 124.708 107.135 121.642 105.788 118.488C105.356 117.486 104.959 116.485 104.738 115.418C104.249 113.021 104.82 110.933 106.574 109.197C107.378 108.403 108.325 107.799 109.321 107.284C113.58 105.069 117.935 103.057 122.318 101.085C123.275 100.649 124.252 100.22 125.279 99.9494C127.198 99.4364 129.065 99.4656 130.823 100.52C131.823 101.123 132.603 101.951 133.238 102.926C134.411 104.731 135.307 106.694 136.234 108.633C137.394 111.065 138.541 113.504 139.677 115.938L139.67 115.942Z" fill="url(#paint4_linear_2162_15)"/>
<path d="M123.447 108.253C120.823 108.152 118.515 109.047 116.531 110.771C115.389 111.761 114.554 112.983 113.961 114.35C113.631 115.109 113.416 115.909 113.304 116.729C113.176 117.677 113.145 118.631 113.289 119.589C113.597 121.64 114.447 123.435 115.842 124.98C116.622 125.825 117.53 126.524 118.55 127.058C119.184 127.395 119.865 127.65 120.561 127.828C121.403 128.041 122.256 128.206 123.121 128.193C124.424 128.179 125.706 127.976 126.916 127.438C127.771 127.059 128.585 126.613 129.329 126.036C130.317 125.267 131.103 124.325 131.763 123.263C132.335 122.268 132.748 121.211 132.956 120.087C133.448 117.433 132.978 114.949 131.479 112.713C129.578 109.882 126.872 108.389 123.465 108.254L123.447 108.253ZM128.509 121.832C128.214 122.264 127.882 122.672 127.474 123.012C125.413 124.918 122.166 125.233 119.761 123.701C117.493 122.406 116.223 119.526 116.833 116.884C117.447 114.215 119.125 112.481 121.795 111.897C124.434 111.319 126.666 112.192 128.331 114.325C130.01 116.468 130.062 119.58 128.509 121.832Z" fill="url(#paint5_linear_2162_15)"/>
<path d="M127.085 102.308C125.92 102.868 125.431 104.255 125.998 105.416C126.569 106.585 127.89 107.062 129.096 106.499C130.261 105.939 130.744 104.556 130.183 103.391C129.633 102.247 128.229 101.757 127.085 102.308Z" fill="url(#paint6_linear_2162_15)"/>
</g>
<defs>
<filter id="filter0_d_2162_15" x="0.743896" y="0.512207" width="247.262" height="248.773" filterUnits="userSpaceOnUse" color-interpolation-filters="sRGB">
<feFlood flood-opacity="0" result="BackgroundImageFix"/>
<feColorMatrix in="SourceAlpha" type="matrix" values="0 0 0 0 0 0 0 0 0 0 0 0 0 0 0 0 0 0 127 0" result="hardAlpha"/>
<feOffset dy="4"/>
<feGaussianBlur stdDeviation="42"/>
<feComposite in2="hardAlpha" operator="out"/>
<feColorMatrix type="matrix" values="0 0 0 0 0.866667 0 0 0 0 0.372549 0 0 0 0 0.65098 0 0 0 1 0"/>
<feBlend mode="normal" in2="BackgroundImageFix" result="effect1_dropShadow_2162_15"/>
<feBlend mode="normal" in="SourceGraphic" in2="effect1_dropShadow_2162_15" result="shape"/>
</filter>
<radialGradient id="paint0_radial_2162_15" cx="0" cy="0" r="1" gradientUnits="userSpaceOnUse" gradientTransform="translate(95.9027 133.511) rotate(-25.3462) scale(49.9103 49.9103)">
<stop stop-color="#ECC848"/>
<stop offset="0.46" stop-color="#DA5F9A"/>
<stop offset="1" stop-color="#6219BB"/>
</radialGradient>
<radialGradient id="paint1_radial_2162_15" cx="0" cy="0" r="1" gradientUnits="userSpaceOnUse" gradientTransform="translate(116.754 156.775) rotate(-25.3462) scale(71.692 71.692)">
<stop stop-color="#F8D24C"/>
<stop offset="0.46" stop-color="#E664A3"/>
<stop offset="1" stop-color="#681BC7"/>
</radialGradient>
<linearGradient id="paint2_linear_2162_15" x1="120.234" y1="130.267" x2="152.848" y2="148.855" gradientUnits="userSpaceOnUse">
<stop stop-color="#616161"/>
<stop offset="0.99" stop-color="white"/>
</linearGradient>
<linearGradient id="paint3_linear_2162_15" x1="125.975" y1="106.186" x2="93.3681" y2="87.5938" gradientUnits="userSpaceOnUse">
<stop stop-color="#616161"/>
<stop offset="0.99" stop-color="white"/>
</linearGradient>
<linearGradient id="paint4_linear_2162_15" x1="106.355" y1="107.862" x2="156.044" y2="138.448" gradientUnits="userSpaceOnUse">
<stop stop-color="white"/>
<stop offset="1" stop-color="#DBDBDB"/>
</linearGradient>
<linearGradient id="paint5_linear_2162_15" x1="106.359" y1="107.852" x2="156.048" y2="138.438" gradientUnits="userSpaceOnUse">
<stop stop-color="white"/>
<stop offset="1" stop-color="#DBDBDB"/>
</linearGradient>
<linearGradient id="paint6_linear_2162_15" x1="113.86" y1="95.6551" x2="163.549" y2="126.242" gradientUnits="userSpaceOnUse">
<stop stop-color="white"/>
<stop offset="1" stop-color="#DBDBDB"/>
</linearGradient>
</defs>
</svg>
