<svg width="215" height="217" viewBox="0 0 215 217" fill="none" xmlns="http://www.w3.org/2000/svg">
<g clip-path="url(#clip0_2162_54)" filter="url(#filter0_d_2162_54)">
<rect width="53.5857" height="56.2478" transform="translate(74.4829 84.3049) rotate(-15.0933)" fill="white" fill-opacity="0.2"/>
<path d="M118.398 77.5913L84.8847 86.6297C79.8523 87.9869 76.8729 93.1667 78.2302 98.1991L86.6703 129.494C88.0275 134.526 93.2073 137.506 98.2397 136.149L131.753 127.11C136.785 125.753 139.765 120.573 138.407 115.541L129.967 84.2459C128.61 79.2135 123.43 76.2341 118.398 77.5913Z" fill="url(#paint0_linear_2162_54)"/>
<path d="M117.108 72.8091L83.5949 81.8475C78.5625 83.2047 75.5832 88.3845 76.9404 93.4169L85.3805 124.712C86.7377 129.744 91.9175 132.724 96.9499 131.366L130.463 122.328C135.496 120.971 138.475 115.791 137.118 110.759L128.678 79.4636C127.32 74.4312 122.141 71.4519 117.108 72.8091Z" fill="url(#paint1_linear_2162_54)"/>
<path d="M130.273 121.624L96.7601 130.663C91.7265 132.02 86.5482 129.042 85.1907 124.008L85.3805 124.712C86.738 129.745 91.9163 132.724 96.9499 131.366L130.463 122.328C135.497 120.971 138.475 115.792 137.118 110.759L136.928 110.055C138.285 115.088 135.307 120.267 130.273 121.624Z" fill="url(#paint2_linear_2162_54)"/>
<path style="mix-blend-mode:overlay" opacity="0.4" d="M83.7847 82.5513L117.298 73.5129C122.332 72.1554 127.51 75.1339 128.867 80.1675L128.678 79.4636C127.32 74.4301 122.142 71.4516 117.108 72.8091L83.5949 81.8475C78.5613 83.205 75.5828 88.3833 76.9404 93.4169L77.1302 94.1207C75.7727 89.0872 78.7511 83.9088 83.7847 82.5513Z" fill="url(#paint3_linear_2162_54)"/>
<path d="M114.829 92.2521C114.599 92.1995 114.373 92.1389 114.145 92.0658C113.493 91.8504 112.868 91.5541 112.283 91.186C110.803 90.1965 110.029 89.003 109.631 88.1261C109.294 87.4014 109.216 86.8897 109.223 86.888L104.082 88.2743L109.445 108.157C109.516 108.421 109.587 108.685 109.646 108.952C109.654 108.984 109.663 109.015 109.671 109.047C109.674 109.059 109.679 109.078 109.683 109.091L109.686 109.103C109.965 110.585 109.491 112.102 108.421 113.159C107.873 113.704 107.189 114.091 106.441 114.293C104.047 114.939 101.578 113.508 100.927 111.095C100.276 108.682 101.691 106.204 104.085 105.558C104.538 105.436 105.009 105.383 105.475 105.412L104.063 100.178C101.333 100.55 98.872 102.05 97.2924 104.316C96.6148 105.328 96.1144 106.447 95.8251 107.624C95.7068 108.06 95.295 109.782 95.852 112.248C96.162 113.647 96.9649 114.975 97.3253 115.511L97.3287 115.524C97.5493 115.842 98.3534 116.899 99.4101 117.692C100.262 118.326 101.201 118.834 102.201 119.191L102.197 119.179L102.213 119.188C105.158 120.207 107.886 119.35 107.886 119.35C108.358 119.202 109.966 118.789 111.55 117.438C113.31 115.939 114.07 114.21 114.07 114.21C114.577 113.164 114.894 112.04 115.019 110.881C115.154 109.53 114.916 108.023 114.758 107.439L111.915 96.894C111.988 96.9147 112.964 97.2378 112.964 97.2378C112.964 97.2378 114.365 97.6824 116.373 97.6801C117.809 97.6773 119.631 97.26 119.631 97.26L118.255 92.1573C117.639 92.3976 116.302 92.5422 114.813 92.2429L114.829 92.2521Z" fill="white"/>
</g>
<defs>
<filter id="filter0_d_2162_54" x="0.48291" y="0.351685" width="214.384" height="216.261" filterUnits="userSpaceOnUse" color-interpolation-filters="sRGB">
<feFlood flood-opacity="0" result="BackgroundImageFix"/>
<feColorMatrix in="SourceAlpha" type="matrix" values="0 0 0 0 0 0 0 0 0 0 0 0 0 0 0 0 0 0 127 0" result="hardAlpha"/>
<feOffset dy="4"/>
<feGaussianBlur stdDeviation="37"/>
<feComposite in2="hardAlpha" operator="out"/>
<feColorMatrix type="matrix" values="0 0 0 0 1 0 0 0 0 1 0 0 0 0 1 0 0 0 0.5 0"/>
<feBlend mode="normal" in2="BackgroundImageFix" result="effect1_dropShadow_2162_54"/>
<feBlend mode="normal" in="SourceGraphic" in2="effect1_dropShadow_2162_54" result="shape"/>
</filter>
<linearGradient id="paint0_linear_2162_54" x1="96.1364" y1="87.9567" x2="118.474" y2="122.642" gradientUnits="userSpaceOnUse">
<stop stop-color="#404040"/>
<stop offset="1"/>
</linearGradient>
<linearGradient id="paint1_linear_2162_54" x1="89.8799" y1="87.7296" x2="134.358" y2="124.972" gradientUnits="userSpaceOnUse">
<stop stop-color="#616161"/>
<stop offset="0.99" stop-color="#242424"/>
</linearGradient>
<linearGradient id="paint2_linear_2162_54" x1="102.875" y1="111.567" x2="126.932" y2="131.707" gradientUnits="userSpaceOnUse">
<stop stop-color="#616161"/>
<stop offset="0.99" stop-color="#242424"/>
</linearGradient>
<linearGradient id="paint3_linear_2162_54" x1="111.185" y1="92.6145" x2="87.1275" y2="72.475" gradientUnits="userSpaceOnUse">
<stop stop-color="#616161"/>
<stop offset="0.99" stop-color="white"/>
</linearGradient>
<clipPath id="clip0_2162_54">
<rect width="53.5857" height="56.2478" fill="white" transform="translate(74.4829 84.3049) rotate(-15.0933)"/>
</clipPath>
</defs>
</svg>
