<svg width="70" height="64" viewBox="0 0 70 64" fill="none" xmlns="http://www.w3.org/2000/svg">
<path d="M69.3293 7.55636L62.4719 0.698931C61.9634 0.298031 61.3253 0.098164 60.679 0.137401C60.0327 0.176638 59.4234 0.452237 58.9672 0.9117C58.511 1.37116 58.2398 1.98239 58.2051 2.62894C58.1705 3.27549 58.3749 3.91219 58.7794 4.41777L60.3355 6.00025L57.1969 8.9806C45.8822 -2.99353 24.2021 -2.99353 12.8874 8.9806L9.88066 6.00025L11.4368 4.41777C11.8689 3.91321 12.0946 3.2642 12.069 2.60041C12.0434 1.93662 11.7682 1.30695 11.2985 0.837231C10.8288 0.367512 10.1991 0.0923379 9.5353 0.0666986C8.87151 0.0410593 8.22249 0.266843 7.71794 0.698931L0.755007 7.55636C0.261859 8.0635 -0.00963129 8.74577 0.000261164 9.45308C0.0101536 10.1604 0.300618 10.8348 0.807757 11.3279C1.3149 11.8211 1.99717 12.0926 2.70448 12.0827C3.41178 12.0728 4.08619 11.7823 4.57934 11.2752L6.16183 9.71909L9.45867 13.0423C-5.7068 33.1926 9.61692 63.4444 35.0422 63.1543C60.4674 63.5235 75.7911 33.2717 60.6257 13.0423L64.0544 9.71909L65.6368 11.2752C66.1453 11.6761 66.7834 11.876 67.4297 11.8367C68.076 11.7975 68.6853 11.5219 69.1415 11.0624C69.5977 10.603 69.8689 9.99174 69.9036 9.34519C69.9382 8.69864 69.7338 8.06193 69.3293 7.55636ZM35.0422 36.7796C33.9444 36.7111 32.8955 36.3011 32.0422 35.607C31.1889 34.913 30.5739 33.9695 30.2833 32.9087C29.9926 31.8479 30.0409 30.7227 30.4212 29.6906C30.8016 28.6586 31.4951 27.7713 32.4047 27.1528V13.0423C32.4047 12.3428 32.6826 11.672 33.1772 11.1773C33.6718 10.6827 34.3427 10.4048 35.0422 10.4048C35.7417 10.4048 36.4125 10.6827 36.9071 11.1773C37.4018 11.672 37.6796 12.3428 37.6796 13.0423V27.0209C38.6453 27.6185 39.3923 28.5117 39.8096 29.5678C40.2269 30.6239 40.2923 31.7865 39.9961 32.8827C39.6998 33.9789 39.0576 34.9503 38.1651 35.6524C37.2726 36.3545 36.1773 36.7498 35.0422 36.7796Z" fill="white"/>
</svg>
