<svg width="80" height="69" viewBox="0 0 80 69" fill="none" xmlns="http://www.w3.org/2000/svg">
<path d="M0.338329 30.3682C0.116514 30.7628 0 31.2078 0 31.6605C0 32.1132 0.116514 32.5583 0.338329 32.9529C4.2498 39.5039 9.41175 45.2214 15.5302 49.78L25.8163 39.4938C24.1062 36.4815 23.4316 32.9912 23.8962 29.5586C24.3608 26.1259 25.9389 22.9406 28.3882 20.4912C30.8376 18.0418 34.023 16.4638 37.4556 15.9992C40.8883 15.5346 44.3785 16.2091 47.3908 17.9193L56.5693 8.74087C51.1995 6.42227 45.4063 5.24566 39.5576 5.28578C14.5543 5.28578 0.892198 29.3659 0.338329 30.3682Z" fill="white"/>
<path d="M78.8823 30.5791C76.5832 25.8693 73.5071 21.5806 69.783 17.8929C68.5588 16.631 67.2455 15.4587 65.8532 14.385L75.7173 4.52087C76.214 4.02423 76.493 3.35063 76.493 2.64826C76.493 1.9459 76.214 1.2723 75.7173 0.775659C75.2207 0.279013 74.5471 0 73.8447 0C73.1424 0 72.4688 0.279013 71.9721 0.775659L61.4486 11.2992L51.479 21.2688L47.7338 25.014L32.9112 39.8366L29.166 43.5818L20.0403 52.7075L8.67278 64.075C8.17865 64.573 7.90137 65.2461 7.90137 65.9476C7.90137 66.6492 8.17865 67.3223 8.67278 67.8202C9.17993 68.2966 9.84958 68.5618 10.5454 68.5618C11.2412 68.5618 11.9109 68.2966 12.418 67.8202L25.0515 55.1867C26.8838 55.9114 28.7601 56.5193 30.6693 57.0066C33.5818 57.6949 36.5649 58.0401 39.5576 58.0352C64.5608 58.0352 78.223 33.9551 78.7768 32.9528C78.9815 32.5939 79.0978 32.1915 79.1162 31.7787C79.1345 31.3659 79.0544 30.9547 78.8823 30.5791ZM55.3666 32.3198C55.1254 35.729 53.8221 38.9769 51.6399 41.6072C49.4576 44.2375 46.506 46.1179 43.1999 46.9842C42.012 47.3048 40.788 47.4732 39.5576 47.4853C37.598 47.4962 35.6548 47.129 33.8343 46.4039L38.1334 42.1049C38.6044 42.1793 39.0807 42.2146 39.5576 42.2104C42.3556 42.2104 45.039 41.0989 47.0175 39.1204C48.996 37.1419 50.1075 34.4585 50.1075 31.6605C50.1117 31.1836 50.0764 30.7073 50.002 30.2362L54.3011 25.9372C55.0261 27.7577 55.3933 29.7009 55.3824 31.6605C55.3824 31.882 55.3824 32.1009 55.3666 32.3198Z" fill="white"/>
<path d="M29.0079 31.6605C29.0016 32.9909 29.2616 34.3092 29.7728 35.5376L43.4349 21.8755C42.2065 21.3643 40.8883 21.1042 39.5578 21.1106C36.7598 21.1106 34.0764 22.2221 32.0979 24.2006C30.1194 26.1791 29.0079 28.8625 29.0079 31.6605Z" fill="white"/>
</svg>
