<svg width="56" height="74" viewBox="0 0 56 74" fill="none" xmlns="http://www.w3.org/2000/svg">
<path d="M54.061 23.4123C47.915 18.585 41.8613 13.7623 35.7384 8.93496C33.0827 6.89246 31.7917 4.29667 32.3311 0.940136C32.4233 0.105613 31.9577 -0.175636 31.0401 0.105613C28.9285 0.7511 27.1857 1.9637 26.1759 3.91399C24.7927 6.69881 22.6027 7.72237 19.8363 7.63016C15.7006 7.44112 13.1371 9.67727 10.9332 12.8402C8.53568 16.1967 7.35997 20.0973 6.44245 24.0025C5.43272 28.1889 4.96244 32.38 4.79646 36.6402C4.60742 39.8999 4.70425 43.0628 4.60742 46.3041C4.60742 46.4931 4.60742 46.59 4.60742 46.6822V55.3271H45.1855V48.8077C45.1855 48.8077 45.5129 46.0643 43.4842 44.0541C41.4555 42.0439 39.3024 40.1627 39.3024 40.1627C38.265 39.3144 37.3198 38.3461 36.5037 37.2903L29.0207 27.608C29.4864 27.9861 29.9382 28.3457 30.4039 28.7238C32.7046 30.485 35.1759 31.2273 38.016 30.485C39.662 30.107 41.3265 30.296 42.788 31.2227C43.6041 31.7668 44.5078 32.2371 45.4161 32.7074C47.5508 33.8139 50.1789 33.3067 51.7142 31.4625C52.6594 30.3283 53.6045 29.1941 54.5497 28.0783C55.7531 26.6536 55.5318 24.565 54.061 23.4123Z" fill="white"/>
<path d="M50.4721 70.4365L45.8615 61.2106C45.4696 60.4314 44.6719 59.9381 43.8005 59.9381H6.91551C6.04411 59.9381 5.24647 60.4314 4.85456 61.2106L0.243938 70.4319C-0.115691 71.1465 -0.0741964 71.9949 0.345371 72.6727C0.764938 73.3504 1.50725 73.77 2.30489 73.77H48.4111C49.2088 73.77 49.9511 73.355 50.3753 72.6773C50.7948 71.9995 50.8317 71.1511 50.4721 70.4365Z" fill="white"/>
</svg>
