<svg width="112" height="34" viewBox="0 0 112 34" fill="none" xmlns="http://www.w3.org/2000/svg">
<g clip-path="url(#clip0_2193_2)">
<path d="M83.6027 32.4434H83.6C83.4612 32.4924 83.3007 32.5033 83.1183 32.4489C81.4993 31.9836 80.0598 30.9822 80.0163 29.2189C78.8381 30.4108 77.366 31.7278 75.668 32.0189C74.8245 32.1632 74.0707 31.9128 73.5537 31.2108C73.2109 30.7455 73.1918 30.2203 73.2462 29.687C71.7197 30.8434 70 31.8257 68.185 32.3237C66.6286 32.7482 64.4952 32.8897 63.4803 31.3577C62.4517 29.8013 63.1537 27.5917 64.0245 26.1223C65.0285 24.4271 66.9959 22.5087 69.0177 22.174C69.9265 22.0217 70.966 22.3781 71.2272 23.3414C71.4394 24.1278 71.0585 24.9169 70.5496 25.4938C69.853 26.2856 68.702 25.1264 69.3932 24.3373C70.253 23.3604 68.6449 23.9972 68.2068 24.253C67.3687 24.7427 66.6177 25.3822 66 26.1332C65.2245 27.0802 64.0952 29.1019 64.7809 30.3536C65.434 31.5455 67.5891 30.8516 68.5469 30.4842C70.3401 29.7985 72.019 28.6802 73.453 27.4149C73.5265 27.3468 73.6054 27.3033 73.6843 27.2679C74.0163 26.0815 74.5279 24.9632 75.2136 23.8992C75.7796 23.0149 77.1945 23.8366 76.6231 24.7237C75.8884 25.8666 75.2707 27.1319 75.0422 28.4815C74.9741 28.8734 74.6639 29.9672 74.9224 30.3019C75.2517 30.7264 76.2286 30.1223 76.5551 29.9346C79.0449 28.5033 80.9388 25.8747 82.351 23.4393C82.8789 22.5278 84.283 23.3495 83.7632 24.2638C83.0802 25.4638 82.3401 26.691 81.8884 27.9999C81.6462 28.6992 81.4558 29.5047 82.0136 30.1087C82.4081 30.5332 83.0149 30.7183 83.5537 30.8734C83.7415 30.9278 83.8803 31.0257 83.9728 31.1482C84.0816 31.5155 84.1115 32.0461 83.6027 32.4434Z" fill="#EC4845"/>
<path d="M12.6068 13.1046L2.73741 0.987549H0V18.8869H3.29796V6.76714L13.1701 18.8869H15.9048V0.987549H12.6068V13.1046Z" fill="white"/>
<path d="M31.0829 10.9603C31.0829 12.8025 30.6911 14.1413 29.9074 14.9739C29.1237 15.8093 28.0053 16.2256 26.5577 16.2256C25.1101 16.2256 23.989 15.8093 23.1945 14.9739C22.4026 14.1386 22.0053 12.7998 22.0053 10.9603V0.987549H18.6802V11.0882C18.6802 13.6978 19.3741 15.6923 20.7645 17.0719C22.155 18.4542 24.0761 19.1427 26.5305 19.1427C28.9849 19.1427 30.8815 18.4515 32.272 17.0719C33.6625 15.6923 34.3564 13.6978 34.3564 11.0882V0.987549H31.0829V10.9603Z" fill="white"/>
<path d="M37.4421 3.77394H43.8095V13.0311C43.8095 15.2297 42.8788 16.329 41.0231 16.329C40.3237 16.329 39.6816 16.1576 39.0911 15.8175C38.5033 15.4773 37.9618 14.9658 37.4666 14.2828L35.5754 16.5576C36.1904 17.393 36.9768 18.0324 37.9401 18.476C38.9033 18.9195 39.9564 19.1399 41.0992 19.1399C43.0584 19.1399 44.555 18.6202 45.5863 17.5807C46.6176 16.5413 47.1346 14.9631 47.1346 12.8488V0.987549H37.4421V3.77394Z" fill="white"/>
<path d="M63.7307 18.8869H67.5157L72.3157 12.0733L77.1811 18.8869H81.0178L74.294 9.62973L80.5579 0.987549H76.9498L72.43 7.34401L67.8477 0.987549H64.0872L70.3702 9.74945L63.7307 18.8869Z" fill="white"/>
<path d="M64.9062 7.87202L53.1702 1.09651C52.83 0.900587 52.4709 0.810791 52.1198 0.810791C51.0205 0.810791 50.011 1.6897 50.011 2.91963V16.4707C50.011 17.6979 51.0205 18.5795 52.1198 18.5795C52.4709 18.5795 52.83 18.4897 53.1702 18.2938L57.5783 15.7496L55.913 12.9468L53.2709 14.4707V4.91963L61.5402 9.69515L58.5198 11.4394L60.1851 14.2421L64.9035 11.5183C66.3076 10.7074 66.3076 8.6829 64.9035 7.87202H64.9062Z" fill="#EC4845"/>
<path d="M87.4665 33.1891C86.5985 33.1891 86.0815 32.8299 85.7849 32.4871C85.0176 31.6 85.2135 30.2449 85.4257 29.6544C89.3114 18.7973 96.7808 6.26122 96.8543 6.13605C97.0856 5.74965 97.5863 5.62176 97.9727 5.85577C98.3591 6.08707 98.4842 6.58775 98.2529 6.97414C98.1795 7.09931 90.7917 19.4993 86.9604 30.2041C86.8407 30.536 86.8053 31.1728 87.0176 31.4177C87.1944 31.6218 87.6924 31.5483 87.8992 31.5075C88.34 31.4177 88.7727 31.7034 88.8597 32.1469C88.9495 32.5877 88.6638 33.0204 88.2203 33.1075C87.9427 33.1646 87.6897 33.1891 87.4638 33.1891H87.4665Z" fill="#EC4845"/>
<path d="M83.532 16.3808C83.2191 16.3808 82.9225 16.2012 82.7864 15.8992C82.6014 15.4883 82.7864 15.0039 83.1973 14.8216C83.7551 14.5713 97.0449 8.74271 111.45 13.7767C111.875 13.9264 112.101 14.3917 111.951 14.8162C111.801 15.2407 111.336 15.4665 110.912 15.3169C97.1347 10.5033 83.9946 16.2529 83.864 16.3101C83.7551 16.359 83.6436 16.3808 83.532 16.3808Z" fill="#EC4845"/>
</g>
<defs>
<clipPath id="clip0_2193_2">
<rect width="112" height="32.3782" fill="white" transform="translate(0 0.810791)"/>
</clipPath>
</defs>
</svg>
