<svg width="100" height="34" viewBox="0 0 100 34" fill="none" xmlns="http://www.w3.org/2000/svg">
<g clip-path="url(#clip0_2076_61)">
<path fill-rule="evenodd" clip-rule="evenodd" d="M2.4083 24.8903C0.150655 22.6518 0.150691 19.0225 2.40837 16.784L8.54031 10.7042C10.4489 8.81184 13.3598 8.51918 15.5784 9.82618C16.2647 10.2304 16.2587 11.1578 15.6942 11.7175C15.1298 12.2771 14.2084 12.2289 13.4423 12.0067C12.4613 11.7222 11.358 11.9636 10.5843 12.7307L4.45233 18.8106C3.32349 19.9298 3.32348 21.7445 4.4523 22.8637C5.58115 23.983 7.4114 23.983 8.54024 22.8637L20.804 10.7042C23.0618 8.46573 26.7221 8.46572 28.9799 10.7042L35.1119 16.784C37.3696 19.0224 37.3696 22.6518 35.1119 24.8903C32.8542 27.1288 29.1938 27.1288 26.936 24.8903L24.8921 22.8637L22.3371 25.397C20.4286 27.2893 17.5176 27.5819 15.299 26.2749C14.6127 25.8707 14.6188 24.9433 15.1832 24.3837C15.7476 23.824 16.6689 23.8722 17.4351 24.0943C18.4162 24.3789 19.5194 24.1375 20.2931 23.3704L22.9211 20.7648C24.0097 19.6855 25.7745 19.6855 26.8631 20.7648L28.98 22.8637C30.1089 23.983 31.939 23.983 33.0679 22.8637C34.1967 21.7445 34.1967 19.9298 33.0679 18.8106L26.9359 12.7308C25.807 11.6116 23.9769 11.6116 22.848 12.7308L10.5842 24.8904C8.32649 27.1289 4.66599 27.1289 2.4083 24.8903Z" fill="white" fill-opacity="0.5"/>
<path d="M59.8966 12.2741C58.476 12.2741 57.3998 12.7828 56.6895 13.8002C56.0653 12.7828 55.0751 12.2741 53.7622 12.2741C52.4061 12.2741 51.416 12.7404 50.7702 13.6942V12.5708H47.9936V23.1687H50.7702V17.2126C50.7702 15.6654 51.5666 14.8176 52.7936 14.8176C53.9343 14.8176 54.6016 15.5594 54.6016 16.8312V23.1687H57.3783V17.2126C57.3783 15.6654 58.1101 14.8176 59.3801 14.8176C60.5209 14.8176 61.188 15.5594 61.188 16.8312V23.1687H63.9647V16.6404C63.9647 13.9909 62.3719 12.2741 59.8966 12.2741Z" fill="white" fill-opacity="0.5"/>
<path d="M74.287 13.8214C73.4475 12.7828 72.2852 12.2741 70.7785 12.2741C69.3364 12.2741 68.1095 12.8252 67.0764 13.9061C66.0647 14.9871 65.5481 16.3013 65.5481 17.8698C65.5481 19.4382 66.0647 20.7736 67.0764 21.8546C68.1095 22.9355 69.3364 23.4654 70.7785 23.4654C72.2852 23.4654 73.4475 22.9567 74.287 21.9181V23.1687H77.0638V12.5708H74.287V13.8214ZM69.1642 20.0317C68.6046 19.4594 68.3247 18.7387 68.3247 17.8698C68.3247 17.0007 68.6046 16.2801 69.1642 15.729C69.7238 15.1567 70.4341 14.8811 71.2951 14.8811C72.1561 14.8811 72.8664 15.1567 73.426 15.729C74.0072 16.2801 74.287 17.0007 74.287 17.8698C74.287 18.7387 74.0072 19.4594 73.426 20.0317C72.8664 20.5828 72.1561 20.8583 71.2951 20.8583C70.4341 20.8583 69.7238 20.5828 69.1642 20.0317Z" fill="white" fill-opacity="0.5"/>
<path d="M87.3089 14.3936V12.5708H79.2373V15.1355H83.5634L79.0214 21.3458V23.1686H87.524V20.6039H82.7451L87.3089 14.3936Z" fill="white" fill-opacity="0.5"/>
<path d="M99.1336 18.9931C99.1983 18.5904 99.2411 18.2301 99.2411 17.8698C99.2411 16.2801 98.7252 14.9659 97.6918 13.8849C96.6802 12.804 95.3671 12.2741 93.7959 12.2741C92.1383 12.2741 90.7611 12.804 89.7059 13.8849C88.6515 14.9447 88.113 16.2801 88.113 17.8698C88.113 19.4806 88.6515 20.816 89.7278 21.8757C90.804 22.9355 92.2247 23.4654 94.011 23.4654C96.077 23.4654 97.6489 22.7024 98.7034 21.1975L96.4651 19.9257C95.9266 20.6252 95.1091 20.9855 94.0539 20.9855C92.397 20.9855 91.3854 20.3285 91.0191 18.9931H99.1336ZM90.9762 16.8735C91.2989 15.517 92.3105 14.7328 93.7959 14.7328C95.0655 14.7328 96.1417 15.4322 96.4651 16.8735H90.9762Z" fill="white" fill-opacity="0.5"/>
</g>
<defs>
<clipPath id="clip0_2076_61">
<rect width="98.5839" height="33.3241" fill="white" transform="translate(0.715088)"/>
</clipPath>
</defs>
</svg>
