<svg width="82" height="82" viewBox="0 0 82 82" fill="none" xmlns="http://www.w3.org/2000/svg">
<mask id="mask0_2163_100" style="mask-type:luminance" maskUnits="userSpaceOnUse" x="0" y="0" width="82" height="82">
<path fill-rule="evenodd" clip-rule="evenodd" d="M0 0H82V82H0V0Z" fill="white"/>
</mask>
<g mask="url(#mask0_2163_100)">
<path fill-rule="evenodd" clip-rule="evenodd" d="M7.6875 41C7.6875 31.8009 10.9398 23.9492 17.4445 17.4445C23.9492 10.9398 31.8011 7.6875 41 7.6875C50.1991 7.6875 58.0509 10.9398 64.5555 17.4445C71.0602 23.9492 74.3125 31.8009 74.3125 41C74.3125 50.1989 71.0602 58.0509 64.5555 64.5555C58.0509 71.0602 50.1991 74.3125 41 74.3125C31.8011 74.3125 23.9492 71.0602 17.4445 64.5555C10.9398 58.0509 7.6875 50.1989 7.6875 41ZM43.5625 43.3562V20.4998C43.5625 19.7922 43.3124 19.1882 42.8119 18.6879C42.3117 18.1875 41.7078 17.9373 41 17.9373C40.2925 17.9373 39.6885 18.1875 39.1881 18.6879C38.6879 19.1882 38.4375 19.7922 38.4375 20.4998V43.3562L29.7883 36.4367C29.2358 35.9947 28.6077 35.8127 27.9046 35.8909C27.2012 35.969 26.6287 36.2845 26.1867 36.837C25.7444 37.3897 25.5626 38.0175 25.6406 38.7207C25.7188 39.4241 26.0342 39.9968 26.5867 40.4388L39.3992 50.6888C39.8671 51.0632 40.4009 51.2503 41 51.2503C41.5994 51.2503 42.1329 51.0632 42.6008 50.6888L55.4133 40.4388C55.9658 39.9968 56.2812 39.4241 56.3594 38.7207C56.4375 38.0175 56.2556 37.3897 55.8136 36.837C55.3715 36.2845 54.7988 35.969 54.0957 35.8909C53.3923 35.8127 52.7644 35.9947 52.2117 36.4367L43.5625 43.3562ZM51.25 61.5005C51.9575 61.5005 52.5615 61.2504 53.0619 60.75C53.5624 60.2498 53.8125 59.6458 53.8125 58.938C53.8125 58.2305 53.5624 57.6265 53.0619 57.1261C52.5615 56.6259 51.9575 56.3755 51.25 56.3755H30.75C30.0425 56.3755 29.4385 56.6259 28.9381 57.1261C28.4376 57.6265 28.1875 58.2305 28.1875 58.938C28.1875 59.6458 28.4376 60.2498 28.9381 60.75C29.4385 61.2504 30.0425 61.5005 30.75 61.5005H51.25Z" fill="#EC4845"/>
</g>
</svg>
