<svg width="143" height="44" viewBox="0 0 143 44" fill="none" xmlns="http://www.w3.org/2000/svg">
<path d="M131.11 21.3756H126.129C122.916 21.3756 121.148 23.7655 121.148 27.9079V42.7251H111.508V21.3756H107.491C104.277 21.3756 102.51 23.7655 102.51 27.9079V42.7251H92.8696V13.4094H102.51V17.8705C104.117 14.3653 106.206 13.4094 109.419 13.4094H121.148V17.8705C122.755 14.3653 124.844 13.4094 128.057 13.4094H131.271L131.11 21.3756ZM90.6202 30.2978H70.6966C71.1786 33.6436 73.2674 35.3961 76.6415 35.3961C79.2123 35.3961 80.9797 34.2809 81.6224 32.5283L90.1382 34.9182C88.0494 40.0165 82.9078 43.0437 76.6415 43.0437C66.1977 43.0437 61.3775 34.9182 61.3775 27.9079C61.3775 21.0569 65.555 12.9314 75.9988 12.9314C87.0854 12.9314 90.7809 21.2163 90.7809 27.4299C90.7809 28.8638 90.7809 29.6605 90.6202 30.2978ZM81.4618 24.7214C81.3011 22.1722 79.373 19.9417 76.1595 19.9417C73.1067 19.9417 71.3393 21.2163 70.6966 24.7214H81.4618ZM44.6674 42.7251H53.0225L63.6269 13.5687H53.9865L48.8449 30.6164L43.7034 13.4094H34.0629L44.6674 42.7251ZM5.46292 42.7251H14.9427V21.3756H24.1011V42.7251H33.5809V13.4094H14.9427V11.6568C14.9427 9.74492 16.3888 8.47032 18.4775 8.47032H24.1011V0.504105H17.0315C10.1225 0.504105 5.46292 4.80586 5.46292 11.0195V13.4094H0V21.3756H5.46292V42.7251Z" fill="white"/>
<path d="M137.055 43.5217C140.269 43.5217 143 40.8132 143 37.6267C143 34.4402 140.269 31.7317 137.055 31.7317C133.842 31.7317 131.11 34.4402 131.11 37.6267C131.11 40.8132 133.842 43.5217 137.055 43.5217Z" fill="#1DBF73"/>
</svg>
