<svg width="156" height="218" viewBox="0 0 156 218" fill="none" xmlns="http://www.w3.org/2000/svg">
<path d="M93.9916 217.983L69.1567 142.513L122.538 124.936L147.373 200.422L116.596 196.794L93.9916 217.983Z" fill="url(#paint0_linear_2322_4383)"/>
<path d="M73.8008 140.982L97.9365 214.288L100.45 211.941L76.7636 140L73.8008 140.982Z" fill="url(#paint1_linear_2322_4383)"/>
<path d="M114.915 127.449L138.585 199.374L142.014 199.79L117.895 126.467L114.915 127.449Z" fill="url(#paint2_linear_2322_4383)"/>
<path d="M8.11865 200.389L33.0034 124.936L86.3849 142.53L61.5002 218L38.8958 196.794L8.11865 200.389Z" fill="url(#paint3_linear_2322_4383)"/>
<path d="M37.648 126.467L13.479 199.773L16.9079 199.357L40.6109 127.433L37.648 126.467Z" fill="url(#paint4_linear_2322_4383)"/>
<path d="M78.7611 140.017L55.0415 211.941L57.5716 214.305L81.7406 140.999L78.7611 140.017Z" fill="url(#paint5_linear_2322_4383)"/>
<path d="M91.9612 5.33949C106.043 -0.170112 101.915 13.1295 111.786 12.2806C126.816 10.9656 119.193 22.5674 128.847 24.5149C143.695 27.4944 133.025 36.5162 141.797 41.0936C155.147 48.0847 142.43 53.7441 149.521 60.6186C160.357 71.1384 146.591 72.9861 151.452 81.5418C158.892 94.7082 145.176 92.4777 147.39 102.149C150.886 116.846 138.202 110.954 137.719 120.775C136.887 135.689 126.417 126.767 123.155 135.955C122.239 138.519 121.79 140.666 119.21 142.314C114.349 145.443 109.172 140.516 104.945 146.375C96.0559 158.643 92.344 145.193 84.5041 151.269C72.5694 160.54 72.7358 146.575 63.5143 150.204C61.6833 150.919 56.0073 153.899 52.0956 148.556L50.531 146.392C48.9164 144.195 46.3364 143.046 43.6898 143.279C28.5924 144.594 36.3658 132.992 26.6283 131.045C11.764 128.065 22.4836 119.077 13.6949 114.483C0.345343 107.508 13.0457 101.832 5.95482 94.9579C-4.93122 84.4047 8.90104 82.7069 4.02396 74.0347C-3.44979 60.9182 10.3325 63.0322 8.06877 53.4278C4.67313 38.7133 17.2071 44.6058 17.7563 34.8017C18.5553 19.6878 28.9919 28.9592 32.3044 19.6378C32.9202 17.8901 34.4183 11.5149 41.0265 12.0975C43.6232 12.3305 47.618 13.1628 50.5143 9.21785C51.6129 7.68648 54.8255 1.99378 61.0342 4.424C63.3479 5.33949 67.0598 7.32028 70.9548 4.32412C82.8895 -4.94732 82.723 9.00146 91.9445 5.38942L91.9612 5.33949Z" fill="url(#paint6_linear_2322_4383)"/>
<path d="M77.746 147.557C116.292 147.557 147.54 116.309 147.54 77.763C147.54 39.217 116.292 7.96921 77.746 7.96921C39.1999 7.96921 7.95215 39.217 7.95215 77.763C7.95215 116.309 39.1999 147.557 77.746 147.557Z" fill="url(#paint7_linear_2322_4383)"/>
<path d="M144.708 88.5818C150.683 51.6094 125.554 16.7937 88.5818 10.8187C51.6094 4.8437 16.7936 29.9721 10.8187 66.9445C4.84368 103.917 29.9721 138.733 66.9445 144.708C103.917 150.683 138.733 125.554 144.708 88.5818Z" fill="url(#paint8_linear_2322_4383)"/>
<path d="M77.7459 137.67C110.831 137.67 137.652 110.848 137.652 77.763C137.652 44.6776 110.831 17.8565 77.7459 17.8565C44.6604 17.8565 17.8394 44.6776 17.8394 77.763C17.8394 110.848 44.6604 137.67 77.7459 137.67Z" fill="url(#paint9_linear_2322_4383)"/>
<path d="M114.116 51.1637V50.3314L41.3923 50.3314V51.1637L114.116 51.1637Z" fill="url(#paint10_linear_2322_4383)"/>
<path d="M45.9197 44.089C45.9197 44.6383 45.8198 45.1211 45.6367 45.5372C45.4536 45.9533 45.2039 46.2862 44.871 46.5359L45.8365 47.3016L44.9376 48.0673L43.6393 47.0353C43.5227 47.0353 43.3896 47.0686 43.2731 47.0686C42.7571 47.0686 42.3076 46.952 41.9082 46.719C41.5087 46.486 41.2091 46.1364 40.976 45.7036C40.7596 45.2709 40.6431 44.7549 40.6265 44.1889V43.8727C40.6265 43.2901 40.7263 42.7574 40.9427 42.308C41.1591 41.8586 41.4587 41.509 41.8582 41.276C42.2577 41.0263 42.7238 40.9098 43.2398 40.9098C43.7558 40.9098 44.2052 41.0263 44.6047 41.276C45.0042 41.5257 45.3204 41.8586 45.5368 42.308C45.7532 42.7574 45.8697 43.2734 45.8697 43.8394V44.1223L45.9197 44.089ZM44.4549 43.8394C44.4549 43.2401 44.355 42.7907 44.1553 42.4745C43.9555 42.1582 43.6726 42.0084 43.3064 42.0084C42.9402 42.0084 42.6405 42.1582 42.4408 42.4578C42.2411 42.7574 42.1578 43.2068 42.1412 43.8061V44.089C42.1412 44.6883 42.2411 45.1377 42.4408 45.454C42.6405 45.7702 42.9235 45.92 43.3064 45.92C43.6892 45.92 43.9555 45.7702 44.1553 45.454C44.355 45.1377 44.4549 44.6883 44.4549 44.1057V43.8227V43.8394Z" fill="#F2F2F2"/>
<path d="M51.3792 40.96V44.8883C51.3792 45.3377 51.2793 45.7206 51.0962 46.0535C50.9131 46.3864 50.6301 46.6194 50.2806 46.8025C49.931 46.9856 49.5149 47.0522 49.0155 47.0522C48.2831 47.0522 47.7006 46.8691 47.2844 46.4863C46.8683 46.1034 46.6519 45.5874 46.6353 44.9216V40.96H48.1V44.9549C48.1167 45.6207 48.4163 45.937 49.0155 45.937C49.3152 45.937 49.5482 45.8537 49.698 45.6873C49.8478 45.5208 49.931 45.2545 49.931 44.8883V40.96H51.3792Z" fill="#F2F2F2"/>
<path d="M55.6074 45.8537H53.6266L53.277 46.969H51.729L53.9262 40.96H55.2911L57.5049 46.969H55.9569L55.6074 45.8537ZM53.9761 44.7385H55.2745L54.6253 42.6578L53.9761 44.7385Z" fill="#F2F2F2"/>
<path d="M59.3856 45.8537H61.8991V46.969H57.9375V40.96H59.3856V45.8537Z" fill="#F2F2F2"/>
<path d="M64.0634 46.969H62.6152V40.96H64.0634V46.969Z" fill="#F2F2F2"/>
<path d="M69.6723 42.0919H67.8747V46.9856H66.4265V42.0919H64.6621V40.9766H69.689V42.0919H69.6723Z" fill="#F2F2F2"/>
<path d="M72.5524 43.5733L73.651 40.96H75.2157L73.2848 44.8051V46.969H71.82V44.8051L69.8892 40.96H71.4372L72.5524 43.5733Z" fill="#F2F2F2"/>
<path d="M82.6226 44.9382C82.6059 45.3544 82.4894 45.7206 82.2897 46.0535C82.0899 46.3697 81.7903 46.6194 81.4241 46.8025C81.0579 46.9856 80.6251 47.0688 80.1424 47.0688C79.3601 47.0688 78.7276 46.8192 78.2782 46.3032C77.8287 45.7872 77.5957 45.0548 77.5957 44.1226V43.823C77.5957 43.2404 77.6956 42.7244 77.8953 42.275C78.0951 41.8256 78.3947 41.4927 78.7775 41.2596C79.1604 41.0266 79.6098 40.8934 80.1091 40.8934C80.8415 40.8934 81.4241 41.0932 81.8735 41.476C82.323 41.8589 82.5727 42.3915 82.6226 43.0573H81.1744C81.1744 42.6911 81.0746 42.4248 80.8915 42.275C80.725 42.1085 80.4587 42.042 80.0925 42.042C79.7263 42.042 79.46 42.1751 79.2935 42.4414C79.1271 42.7078 79.0438 43.1405 79.0272 43.7398V44.1726C79.0272 44.8051 79.1104 45.2712 79.2769 45.5541C79.4433 45.8371 79.7097 45.9703 80.1091 45.9703C80.442 45.9703 80.6917 45.887 80.8748 45.7372C81.0579 45.5874 81.1412 45.3377 81.1578 44.9882H82.6059L82.6226 44.9382Z" fill="#F2F2F2"/>
<path d="M88.382 44.0893C88.382 44.6719 88.2655 45.1879 88.0491 45.6373C87.8327 46.0868 87.5165 46.4363 87.117 46.686C86.7175 46.9357 86.2681 47.0522 85.7521 47.0522C85.2361 47.0522 84.7866 46.9357 84.3872 46.7026C83.9877 46.4696 83.6881 46.1367 83.455 45.6873C83.2386 45.2545 83.1221 44.7551 83.1055 44.1892V43.8563C83.1055 43.2737 83.222 42.741 83.4217 42.2916C83.6381 41.8422 83.9544 41.4926 84.3539 41.243C84.7534 40.9933 85.2194 40.8768 85.7354 40.8768C86.2514 40.8768 86.7009 40.9933 87.1003 41.243C87.4998 41.4926 87.8161 41.8256 88.0325 42.275C88.2489 42.7244 88.3654 43.2404 88.3654 43.8063V44.0893H88.382ZM86.9006 43.8396C86.9006 43.2404 86.8007 42.791 86.601 42.4747C86.4012 42.1585 86.1183 42.0087 85.7521 42.0087C85.0197 42.0087 84.6368 42.5579 84.6035 43.6399V44.0893C84.6035 44.6719 84.7034 45.138 84.8865 45.4542C85.0863 45.7705 85.3692 45.9369 85.7521 45.9369C86.1349 45.9369 86.4012 45.7871 86.601 45.4709C86.8007 45.1546 86.9006 44.7052 86.9006 44.1226V43.8396Z" fill="#F2F2F2"/>
<path d="M94.1577 46.969H92.7262L90.5956 43.2238V46.969H89.1475V40.96H90.5956L92.7262 44.7052V40.96H94.1743V46.969H94.1577Z" fill="#F2F2F2"/>
<path d="M99.6675 42.0919H97.8698V46.9856H96.4216V42.0919H94.6572V40.9766H99.6841V42.0919H99.6675Z" fill="#F2F2F2"/>
<path d="M103.996 44.4222H101.715V45.8537H104.412V46.969H100.267V40.96H104.412V42.0753H101.715V43.3403H103.996V44.4056V44.4222Z" fill="#F2F2F2"/>
<path d="M110.021 46.969H108.59L106.459 43.2238V46.969H105.011V40.96H106.459L108.59 44.7052V40.96H110.038V46.969H110.021Z" fill="#F2F2F2"/>
<path d="M115.531 42.0919H113.733V46.9856H112.285V42.0919H110.521V40.9766H115.547V42.0919H115.531Z" fill="#F2F2F2"/>
<path d="M60.3678 69.3406H63.2641C65.5611 69.3406 66.7097 68.2253 66.7097 65.9782C66.7097 65.1127 66.4433 64.3969 65.894 63.8476C65.3447 63.2983 64.5791 63.0154 63.5803 63.0154C62.7647 63.0154 62.0656 63.2484 61.4664 63.7311C60.8671 64.1972 60.5675 64.7964 60.5675 65.4955H54.4421C54.4421 64.0973 54.8249 62.8655 55.6072 61.767C56.3896 60.6684 57.4549 59.8195 58.8364 59.2036C60.218 58.5877 61.7327 58.2881 63.3806 58.2881C66.3268 58.2881 68.6405 58.9539 70.3217 60.3022C72.0029 61.6504 72.8518 63.4981 72.8518 65.8451C72.8518 66.9936 72.5022 68.0589 71.8031 69.0743C71.104 70.0896 70.0887 70.9052 68.757 71.5378C70.1719 72.0538 71.2705 72.8194 72.0694 73.8515C72.8684 74.8835 73.2679 76.1652 73.2679 77.6965C73.2679 80.0602 72.3524 81.9577 70.5381 83.3726C68.7237 84.7874 66.3268 85.5032 63.3639 85.5032C61.6328 85.5032 60.0182 85.1703 58.5368 84.5045C57.0554 83.8386 55.9235 82.9232 55.1578 81.758C54.3921 80.5928 54.0093 79.2612 54.0093 77.7631H60.1847C60.1847 78.5787 60.5176 79.2778 61.1668 79.8771C61.8159 80.4763 62.6315 80.7759 63.5803 80.7759C64.6623 80.7759 65.5278 80.4763 66.1604 79.8771C66.8095 79.2778 67.1258 78.5121 67.1258 77.58C67.1258 76.2484 66.7929 75.2996 66.1271 74.7503C65.4613 74.201 64.5458 73.918 63.3639 73.918H60.3844V69.3572L60.3678 69.3406Z" fill="#F2F2F2"/>
<path d="M86.6014 67.4598L90.9292 58.6544H98.2199L90.8127 71.7876L98.4196 85.1371H91.0457L86.5848 76.1653L82.1238 85.1371H74.7666L82.3569 71.7876L74.9663 58.6544H82.2404L86.5681 67.4598H86.6014Z" fill="#F2F2F2"/>
<path d="M47.4842 96.073H44.3549V98.0372H48.0335V99.5685H42.3574V91.3291H48.0335V92.8605H44.3382V94.5916H47.4675V96.0564L47.4842 96.073Z" fill="#F2F2F2"/>
<path d="M55.7402 99.5685H53.7594L50.8465 94.4418V99.5685H48.8657V91.3291H50.8465L53.7594 96.4559V91.3291H55.7402V99.5685Z" fill="#F2F2F2"/>
<path d="M63.73 98.5363C63.4304 98.8692 62.981 99.1522 62.3818 99.3519C61.7992 99.5516 61.15 99.6682 60.4509 99.6682C59.369 99.6682 58.5034 99.3353 57.8709 98.6861C57.2217 98.0203 56.8888 97.1048 56.8389 95.9396V95.2239C56.8389 94.4082 56.972 93.7091 57.255 93.0933C57.538 92.494 57.9541 92.028 58.4868 91.6951C59.0194 91.3622 59.6353 91.2123 60.3344 91.2123C61.3664 91.2123 62.1487 91.4454 62.7313 91.9114C63.2973 92.3775 63.6302 93.0766 63.73 94.0088H61.8158C61.7492 93.5427 61.5994 93.2264 61.383 93.0267C61.15 92.8269 60.8337 92.7271 60.4176 92.7271C59.9183 92.7271 59.5354 92.9435 59.2691 93.3596C59.0028 93.7757 58.8529 94.3916 58.8529 95.1739V95.6733C58.8529 96.4889 58.9861 97.1048 59.2691 97.5209C59.5521 97.9371 59.9848 98.1368 60.6007 98.1368C61.1167 98.1368 61.4996 98.0203 61.7492 97.7872V96.5056H60.3677V95.1406H63.73V98.5196V98.5363Z" fill="#F2F2F2"/>
<path d="M69.573 98.0206H66.8599L66.3771 99.5519H64.2632L67.276 91.3125H69.1403L72.1864 99.5519H70.0558L69.573 98.0206ZM67.3259 96.4892H69.0903L68.2081 93.6262L67.3259 96.4892Z" fill="#F2F2F2"/>
<path d="M79.4102 98.5363C79.1106 98.8692 78.6612 99.1522 78.0619 99.3519C77.4793 99.5516 76.8302 99.6682 76.1311 99.6682C75.0491 99.6682 74.1836 99.3353 73.5511 98.6861C72.9019 98.0203 72.569 97.1048 72.519 95.9396V95.2239C72.519 94.4082 72.6522 93.7091 72.9352 93.0933C73.2181 92.494 73.6343 92.028 74.1669 91.6951C74.6996 91.3622 75.3155 91.2123 76.0146 91.2123C77.0466 91.2123 77.8289 91.4454 78.4115 91.9114C78.9774 92.3775 79.3103 93.0766 79.4102 94.0088H77.496C77.4294 93.5427 77.2796 93.2264 77.0632 93.0267C76.8302 92.8269 76.5139 92.7271 76.0978 92.7271C75.5984 92.7271 75.2156 92.9435 74.9493 93.3596C74.6829 93.7757 74.5331 94.3916 74.5331 95.1739V95.6733C74.5331 96.4889 74.6663 97.1048 74.9493 97.5209C75.2322 97.9371 75.665 98.1368 76.2809 98.1368C76.7969 98.1368 77.1797 98.0203 77.4294 97.7872V96.5056H76.0478V95.1406H79.4102V98.5196V98.5363Z" fill="#F2F2F2"/>
<path d="M85.6683 96.073H82.5389V98.0372H86.2176V99.5685H80.5415V91.3291H86.2176V92.8605H82.5223V94.5916H85.6516V96.0564L85.6683 96.073Z" fill="#F2F2F2"/>
<path d="M89.6465 91.3291L91.4775 97.0551L93.3085 91.3291H95.9218V99.5685H93.9244V97.6377L94.1241 93.7094L92.1267 99.5685H90.8117L88.8143 93.7094L89.014 97.6543V99.5852H87.0332V91.3457H89.6465V91.3291Z" fill="#F2F2F2"/>
<path d="M102.298 96.073H99.1683V98.0372H102.847V99.5685H97.1709V91.3291H102.847V92.8605H99.1517V94.5916H102.281V96.0564L102.298 96.073Z" fill="#F2F2F2"/>
<path d="M110.553 99.5685H108.572L105.66 94.4418V99.5685H103.679V91.3291H105.66L108.572 96.4559V91.3291H110.553V99.5685Z" fill="#F2F2F2"/>
<path d="M118.094 92.8605H115.63V99.5685H113.649V92.8605H111.219V91.3291H118.094V92.8605Z" fill="#F2F2F2"/>
<path d="M56.6397 102.714L57.8548 105.161L60.5513 105.561L58.6038 107.458L59.0533 110.155L56.6397 108.89L54.2095 110.155L54.6755 107.458L52.728 105.561L55.4246 105.161L56.6397 102.714Z" fill="url(#paint11_linear_2322_4383)"/>
<path d="M67.1929 102.714L68.408 105.161L71.1046 105.561L69.1571 107.458L69.6231 110.155L67.1929 108.89L64.7793 110.155L65.2288 107.458L63.2812 105.561L65.9778 105.161L67.1929 102.714Z" fill="url(#paint12_linear_2322_4383)"/>
<path d="M77.7466 102.714L78.9617 105.161L81.6749 105.561L79.7108 107.458L80.1768 110.155L77.7466 108.89L75.333 110.155L75.7991 107.458L73.835 105.561L76.5481 105.161L77.7466 102.714Z" fill="url(#paint13_linear_2322_4383)"/>
<path d="M88.2993 102.714L89.5145 105.161L92.2276 105.561L90.2635 107.458L90.7296 110.155L88.2993 108.89L85.8858 110.155L86.3518 107.458L84.3877 105.561L87.1009 105.161L88.2993 102.714Z" fill="url(#paint14_linear_2322_4383)"/>
<path d="M98.8521 102.714L100.067 105.161L102.78 105.561L100.816 107.458L101.282 110.155L98.8521 108.89L96.4385 110.155L96.9046 107.458L94.9404 105.561L97.6536 105.161L98.8521 102.714Z" fill="url(#paint15_linear_2322_4383)"/>
<path d="M56.6397 102.714L57.8548 105.161L60.5513 105.561L58.6038 107.458L59.0533 110.155L56.6397 108.89L54.2095 110.155L54.6755 107.458L52.728 105.561L55.4246 105.161L56.6397 102.714Z" fill="url(#paint16_linear_2322_4383)"/>
<path d="M67.1929 102.714L68.408 105.161L71.1046 105.561L69.1571 107.458L69.6231 110.155L67.1929 108.89L64.7793 110.155L65.2288 107.458L63.2812 105.561L65.9778 105.161L67.1929 102.714Z" fill="url(#paint17_linear_2322_4383)"/>
<path d="M77.7466 102.714L78.9617 105.161L81.6749 105.561L79.7108 107.458L80.1768 110.155L77.7466 108.89L75.333 110.155L75.7991 107.458L73.835 105.561L76.5481 105.161L77.7466 102.714Z" fill="url(#paint18_linear_2322_4383)"/>
<path d="M88.2993 102.714L89.5145 105.161L92.2276 105.561L90.2635 107.458L90.7296 110.155L88.2993 108.89L85.8858 110.155L86.3518 107.458L84.3877 105.561L87.1009 105.161L88.2993 102.714Z" fill="url(#paint19_linear_2322_4383)"/>
<path d="M98.8521 102.714L100.067 105.161L102.78 105.561L100.816 107.458L101.282 110.155L98.8521 108.89L96.4385 110.155L96.9046 107.458L94.9404 105.561L97.6536 105.161L98.8521 102.714Z" fill="url(#paint20_linear_2322_4383)"/>
<path d="M58.6701 120.791C58.4703 121.008 58.1873 121.191 57.7879 121.324C57.405 121.457 56.9889 121.524 56.5228 121.524C55.8237 121.524 55.2578 121.307 54.8416 120.874C54.4255 120.442 54.1925 119.842 54.1592 119.077V118.611C54.1592 118.078 54.2424 117.612 54.4422 117.229C54.6419 116.846 54.8916 116.53 55.2411 116.314C55.5907 116.097 55.9902 115.997 56.4562 115.997C57.122 115.997 57.638 116.147 58.0209 116.463C58.4037 116.78 58.6035 117.229 58.6701 117.828H57.4217C57.3717 117.529 57.2885 117.312 57.1387 117.179C56.9889 117.046 56.7891 116.979 56.5062 116.979C56.1733 116.979 55.9236 117.113 55.7571 117.396C55.574 117.678 55.4908 118.061 55.4908 118.577V118.91C55.4908 119.443 55.574 119.842 55.7738 120.125C55.9569 120.392 56.2398 120.525 56.6393 120.525C56.9722 120.525 57.2219 120.458 57.3884 120.308V119.476H56.4895V118.577H58.6867V120.791H58.6701Z" fill="#F2F2F2"/>
<path d="M63.6469 116.081V119.593C63.6469 119.992 63.5637 120.342 63.3972 120.625C63.2308 120.908 62.9811 121.141 62.6648 121.291C62.3486 121.44 61.9657 121.524 61.5329 121.524C60.8838 121.524 60.3678 121.357 59.9849 121.008C59.6021 120.675 59.419 120.209 59.4023 119.609V116.064H60.7007V119.626C60.7007 120.209 60.9836 120.508 61.5163 120.508C61.7826 120.508 61.9824 120.442 62.1322 120.292C62.282 120.142 62.3319 119.909 62.3319 119.576V116.064H63.6303L63.6469 116.081Z" fill="#F2F2F2"/>
<path d="M67.4252 120.458H65.6441L65.3279 121.457H63.9463L65.9104 116.081H67.1255L69.1063 121.457H67.7081L67.3919 120.458H67.4252ZM65.9604 119.46H67.1089L66.5263 117.595L65.9437 119.46H65.9604Z" fill="#F2F2F2"/>
<path d="M71.5199 119.559H70.8208V121.457H69.5225V116.081H71.6364C72.2689 116.081 72.7683 116.214 73.1345 116.497C73.5007 116.78 73.6671 117.179 73.6671 117.695C73.6671 118.061 73.6006 118.378 73.4341 118.627C73.2843 118.877 73.0513 119.077 72.7184 119.227L73.8336 121.39V121.44H72.452L71.5033 119.543L71.5199 119.559ZM70.8208 118.561H71.6364C71.8861 118.561 72.0692 118.494 72.1857 118.361C72.3022 118.228 72.3688 118.045 72.3688 117.812C72.3688 117.579 72.3022 117.396 72.1857 117.262C72.0526 117.129 71.8695 117.063 71.6364 117.063H70.8208V118.544V118.561Z" fill="#F2F2F2"/>
<path d="M77.496 120.458H75.7149L75.3987 121.457H74.0171L75.9812 116.081H77.1963L79.1771 121.457H77.7789L77.4627 120.458H77.496ZM76.0312 119.46H77.1797L76.5971 117.595L76.0145 119.46H76.0312Z" fill="#F2F2F2"/>
<path d="M84.0875 121.457H82.8058L80.9082 118.111V121.457H79.6099V116.081H80.9082L82.8058 119.426V116.081H84.1041V121.457H84.0875Z" fill="#F2F2F2"/>
<path d="M89.0147 117.079H87.4001V121.457H86.1018V117.079H84.5205V116.081H89.0147V117.079Z" fill="#F2F2F2"/>
<path d="M92.8925 119.177H90.8618V120.458H93.2753V121.457H89.5801V116.081H93.292V117.079H90.8784V118.211H92.9091V119.177H92.8925Z" fill="#F2F2F2"/>
<path d="M97.1376 119.177H95.1069V120.458H97.5205V121.457H93.8252V116.081H97.5371V117.079H95.1235V118.211H97.1543V119.177H97.1376Z" fill="#F2F2F2"/>
<path d="M98.0191 121.457V116.081H99.7502C100.233 116.081 100.649 116.18 101.032 116.397C101.415 116.613 101.714 116.913 101.914 117.312C102.114 117.712 102.23 118.145 102.23 118.627V118.877C102.23 119.376 102.13 119.809 101.914 120.192C101.698 120.575 101.415 120.891 101.032 121.108C100.649 121.324 100.233 121.44 99.7668 121.44H98.0024L98.0191 121.457ZM99.3174 117.079V120.458H99.7668C100.133 120.458 100.416 120.325 100.616 120.059C100.815 119.793 100.915 119.393 100.915 118.877V118.644C100.915 118.128 100.815 117.729 100.616 117.462C100.416 117.196 100.133 117.063 99.7502 117.063H99.3174V117.079Z" fill="#F2F2F2"/>
<defs>
<linearGradient id="paint0_linear_2322_4383" x1="95.8139" y1="133.496" x2="130.626" y2="239.254" gradientUnits="userSpaceOnUse">
<stop stop-color="#D39B39"/>
<stop offset="0.19" stop-color="#F2C86C"/>
<stop offset="0.25" stop-color="#E0B154"/>
<stop offset="0.33" stop-color="#CD9838"/>
<stop offset="0.4" stop-color="#BF8625"/>
<stop offset="0.48" stop-color="#B77B19"/>
<stop offset="0.56" stop-color="#B57816"/>
<stop offset="0.61" stop-color="#B57816"/>
<stop offset="0.85" stop-color="#FBE18A"/>
<stop offset="1" stop-color="#D39B39"/>
</linearGradient>
<linearGradient id="paint1_linear_2322_4383" x1="74.112" y1="136.687" x2="100.202" y2="215.947" gradientUnits="userSpaceOnUse">
<stop stop-color="#58595B"/>
<stop offset="1" stop-color="#231F20"/>
</linearGradient>
<linearGradient id="paint2_linear_2322_4383" x1="115.236" y1="123.151" x2="141.326" y2="202.41" gradientUnits="userSpaceOnUse">
<stop stop-color="#58595B"/>
<stop offset="1" stop-color="#231F20"/>
</linearGradient>
<linearGradient id="paint3_linear_2322_4383" x1="34.7928" y1="133.498" x2="69.5986" y2="239.284" gradientUnits="userSpaceOnUse">
<stop stop-color="#D39B39"/>
<stop offset="0.19" stop-color="#F2C86C"/>
<stop offset="0.25" stop-color="#E0B154"/>
<stop offset="0.33" stop-color="#CD9838"/>
<stop offset="0.4" stop-color="#BF8625"/>
<stop offset="0.48" stop-color="#B77B19"/>
<stop offset="0.56" stop-color="#B57816"/>
<stop offset="0.61" stop-color="#B57816"/>
<stop offset="0.85" stop-color="#FBE18A"/>
<stop offset="1" stop-color="#D39B39"/>
</linearGradient>
<linearGradient id="paint4_linear_2322_4383" x1="40.3545" y1="122.989" x2="14.2232" y2="202.234" gradientUnits="userSpaceOnUse">
<stop stop-color="#58595B"/>
<stop offset="1" stop-color="#231F20"/>
</linearGradient>
<linearGradient id="paint5_linear_2322_4383" x1="81.4704" y1="136.547" x2="55.3339" y2="215.808" gradientUnits="userSpaceOnUse">
<stop stop-color="#58595B"/>
<stop offset="1" stop-color="#231F20"/>
</linearGradient>
<linearGradient id="paint6_linear_2322_4383" x1="1.67697" y1="77.7633" x2="153.815" y2="77.7633" gradientUnits="userSpaceOnUse">
<stop stop-color="#58595B"/>
<stop offset="1" stop-color="#231F20"/>
</linearGradient>
<linearGradient id="paint7_linear_2322_4383" x1="55.5254" y1="20.8112" x2="100.722" y2="184.152" gradientUnits="userSpaceOnUse">
<stop stop-color="#D39B39"/>
<stop offset="0.19" stop-color="#F2C86C"/>
<stop offset="0.25" stop-color="#E0B154"/>
<stop offset="0.33" stop-color="#CD9838"/>
<stop offset="0.4" stop-color="#BF8625"/>
<stop offset="0.48" stop-color="#B77B19"/>
<stop offset="0.56" stop-color="#B57816"/>
<stop offset="0.61" stop-color="#B57816"/>
<stop offset="0.85" stop-color="#FBE18A"/>
<stop offset="1" stop-color="#D39B39"/>
</linearGradient>
<linearGradient id="paint8_linear_2322_4383" x1="19.692" y1="90.2485" x2="183.371" y2="72.216" gradientUnits="userSpaceOnUse">
<stop stop-color="#D39B39"/>
<stop offset="0.19" stop-color="#F2C86C"/>
<stop offset="0.25" stop-color="#E0B154"/>
<stop offset="0.33" stop-color="#CD9838"/>
<stop offset="0.4" stop-color="#BF8625"/>
<stop offset="0.48" stop-color="#B77B19"/>
<stop offset="0.56" stop-color="#B57816"/>
<stop offset="0.61" stop-color="#B57816"/>
<stop offset="0.85" stop-color="#FBE18A"/>
<stop offset="1" stop-color="#D39B39"/>
</linearGradient>
<linearGradient id="paint9_linear_2322_4383" x1="77.7459" y1="17.0409" x2="77.7459" y2="137.47" gradientUnits="userSpaceOnUse">
<stop stop-color="#58595B"/>
<stop offset="1" stop-color="#231F20"/>
</linearGradient>
<linearGradient id="paint10_linear_2322_4383" x1="77.7457" y1="-1.35229" x2="77.7457" y2="89.4146" gradientUnits="userSpaceOnUse">
<stop offset="0.11" stop-color="#8C581C"/>
<stop offset="0.24" stop-color="#B57816"/>
<stop offset="0.26" stop-color="#B97F1D"/>
<stop offset="0.38" stop-color="#D5A94C"/>
<stop offset="0.49" stop-color="#EAC76D"/>
<stop offset="0.59" stop-color="#F6DA82"/>
<stop offset="0.65" stop-color="#FBE18A"/>
<stop offset="0.76" stop-color="#FBE18A"/>
<stop offset="0.8" stop-color="#F6DA81"/>
<stop offset="0.88" stop-color="#EBC76A"/>
<stop offset="0.97" stop-color="#D8A944"/>
<stop offset="1" stop-color="#D3A039"/>
</linearGradient>
<linearGradient id="paint11_linear_2322_4383" x1="19.5539" y1="70.3059" x2="83.655" y2="133.941" gradientUnits="userSpaceOnUse">
<stop stop-color="#D2AB67"/>
<stop offset="0.2" stop-color="#BD7729"/>
<stop offset="0.59" stop-color="#FFE986"/>
<stop offset="0.78" stop-color="#C48127"/>
<stop offset="1" stop-color="#FDE981"/>
</linearGradient>
<linearGradient id="paint12_linear_2322_4383" x1="30.1071" y1="70.306" x2="94.2249" y2="133.941" gradientUnits="userSpaceOnUse">
<stop stop-color="#D2AB67"/>
<stop offset="0.2" stop-color="#BD7729"/>
<stop offset="0.59" stop-color="#FFE986"/>
<stop offset="0.78" stop-color="#C48127"/>
<stop offset="1" stop-color="#FDE981"/>
</linearGradient>
<linearGradient id="paint13_linear_2322_4383" x1="40.6608" y1="70.306" x2="104.779" y2="133.941" gradientUnits="userSpaceOnUse">
<stop stop-color="#D2AB67"/>
<stop offset="0.2" stop-color="#BD7729"/>
<stop offset="0.59" stop-color="#FFE986"/>
<stop offset="0.78" stop-color="#C48127"/>
<stop offset="1" stop-color="#FDE981"/>
</linearGradient>
<linearGradient id="paint14_linear_2322_4383" x1="51.2136" y1="70.306" x2="115.331" y2="133.941" gradientUnits="userSpaceOnUse">
<stop stop-color="#D2AB67"/>
<stop offset="0.2" stop-color="#BD7729"/>
<stop offset="0.59" stop-color="#FFE986"/>
<stop offset="0.78" stop-color="#C48127"/>
<stop offset="1" stop-color="#FDE981"/>
</linearGradient>
<linearGradient id="paint15_linear_2322_4383" x1="61.7663" y1="70.306" x2="125.884" y2="133.941" gradientUnits="userSpaceOnUse">
<stop stop-color="#D2AB67"/>
<stop offset="0.2" stop-color="#BD7729"/>
<stop offset="0.59" stop-color="#FFE986"/>
<stop offset="0.78" stop-color="#C48127"/>
<stop offset="1" stop-color="#FDE981"/>
</linearGradient>
<linearGradient id="paint16_linear_2322_4383" x1="56.6397" y1="20.653" x2="56.6397" y2="162.771" gradientUnits="userSpaceOnUse">
<stop offset="0.11" stop-color="#8C581C"/>
<stop offset="0.24" stop-color="#B57816"/>
<stop offset="0.26" stop-color="#B97F1D"/>
<stop offset="0.38" stop-color="#D5A94C"/>
<stop offset="0.49" stop-color="#EAC76D"/>
<stop offset="0.59" stop-color="#F6DA82"/>
<stop offset="0.65" stop-color="#FBE18A"/>
<stop offset="0.76" stop-color="#FBE18A"/>
<stop offset="0.8" stop-color="#F6DA81"/>
<stop offset="0.88" stop-color="#EBC76A"/>
<stop offset="0.97" stop-color="#D8A944"/>
<stop offset="1" stop-color="#D3A039"/>
</linearGradient>
<linearGradient id="paint17_linear_2322_4383" x1="67.1929" y1="20.653" x2="67.1929" y2="162.771" gradientUnits="userSpaceOnUse">
<stop offset="0.11" stop-color="#8C581C"/>
<stop offset="0.24" stop-color="#B57816"/>
<stop offset="0.26" stop-color="#B97F1D"/>
<stop offset="0.38" stop-color="#D5A94C"/>
<stop offset="0.49" stop-color="#EAC76D"/>
<stop offset="0.59" stop-color="#F6DA82"/>
<stop offset="0.65" stop-color="#FBE18A"/>
<stop offset="0.76" stop-color="#FBE18A"/>
<stop offset="0.8" stop-color="#F6DA81"/>
<stop offset="0.88" stop-color="#EBC76A"/>
<stop offset="0.97" stop-color="#D8A944"/>
<stop offset="1" stop-color="#D3A039"/>
</linearGradient>
<linearGradient id="paint18_linear_2322_4383" x1="77.7466" y1="20.653" x2="77.7466" y2="162.771" gradientUnits="userSpaceOnUse">
<stop offset="0.11" stop-color="#8C581C"/>
<stop offset="0.24" stop-color="#B57816"/>
<stop offset="0.26" stop-color="#B97F1D"/>
<stop offset="0.38" stop-color="#D5A94C"/>
<stop offset="0.49" stop-color="#EAC76D"/>
<stop offset="0.59" stop-color="#F6DA82"/>
<stop offset="0.65" stop-color="#FBE18A"/>
<stop offset="0.76" stop-color="#FBE18A"/>
<stop offset="0.8" stop-color="#F6DA81"/>
<stop offset="0.88" stop-color="#EBC76A"/>
<stop offset="0.97" stop-color="#D8A944"/>
<stop offset="1" stop-color="#D3A039"/>
</linearGradient>
<linearGradient id="paint19_linear_2322_4383" x1="88.2993" y1="20.653" x2="88.2993" y2="162.771" gradientUnits="userSpaceOnUse">
<stop offset="0.11" stop-color="#8C581C"/>
<stop offset="0.24" stop-color="#B57816"/>
<stop offset="0.26" stop-color="#B97F1D"/>
<stop offset="0.38" stop-color="#D5A94C"/>
<stop offset="0.49" stop-color="#EAC76D"/>
<stop offset="0.59" stop-color="#F6DA82"/>
<stop offset="0.65" stop-color="#FBE18A"/>
<stop offset="0.76" stop-color="#FBE18A"/>
<stop offset="0.8" stop-color="#F6DA81"/>
<stop offset="0.88" stop-color="#EBC76A"/>
<stop offset="0.97" stop-color="#D8A944"/>
<stop offset="1" stop-color="#D3A039"/>
</linearGradient>
<linearGradient id="paint20_linear_2322_4383" x1="98.8521" y1="20.653" x2="98.8521" y2="162.771" gradientUnits="userSpaceOnUse">
<stop offset="0.11" stop-color="#8C581C"/>
<stop offset="0.24" stop-color="#B57816"/>
<stop offset="0.26" stop-color="#B97F1D"/>
<stop offset="0.38" stop-color="#D5A94C"/>
<stop offset="0.49" stop-color="#EAC76D"/>
<stop offset="0.59" stop-color="#F6DA82"/>
<stop offset="0.65" stop-color="#FBE18A"/>
<stop offset="0.76" stop-color="#FBE18A"/>
<stop offset="0.8" stop-color="#F6DA81"/>
<stop offset="0.88" stop-color="#EBC76A"/>
<stop offset="0.97" stop-color="#D8A944"/>
<stop offset="1" stop-color="#D3A039"/>
</linearGradient>
</defs>
</svg>
