<svg width="53" height="65" viewBox="0 0 53 65" fill="none" xmlns="http://www.w3.org/2000/svg">
<path fill-rule="evenodd" clip-rule="evenodd" d="M47.6992 0H5.29943C2.37076 0 0 2.37092 0 5.29029V62.7324C0 63.5727 0.467054 64.3437 1.21093 64.7362C1.95623 65.1288 2.85485 65.0778 3.55188 64.603L11.1085 59.4544L18.2534 64.5733C19.1109 65.1897 20.2792 65.133 21.0728 64.4372L26.5 59.6996L31.9272 64.4372C32.7208 65.133 33.8891 65.1897 34.7466 64.5733L41.8915 59.4544L49.4481 64.603C50.1452 65.0778 51.0438 65.1288 51.7891 64.7362C52.5344 64.3437 53 63.5727 53 62.7324V5.29029C53 2.3695 50.6292 0 47.7006 0H47.6992ZM34.8204 29.5862C30.0945 32.2363 25.3813 34.8793 20.6455 37.5365C18.9675 38.4775 16.8949 37.2673 16.8949 35.3456V19.4464C16.8949 17.5247 18.9675 16.3144 20.6455 17.2554C25.3686 19.9041 30.0831 22.5486 34.8204 25.2043C36.5324 26.1652 36.5324 28.6268 34.8204 29.5862Z" fill="#EC4845"/>
</svg>
