<svg width="66" height="65" viewBox="0 0 66 65" fill="none" xmlns="http://www.w3.org/2000/svg">
<path d="M54.1683 23.3954L49.6802 25.2083C49.1024 25.4426 48.4951 25.5609 47.8764 25.5609C46.5502 25.5609 45.2672 25.0013 44.3596 24.0255C43.4565 23.0564 42.9902 21.7394 43.0835 20.4132L43.4224 15.5862L40.3083 11.8829C39.6168 11.0595 39.271 10.0518 39.2233 9.01904H9.71312C4.36749 9.01904 0 13.3865 0 18.7549V45.8243C0 51.1926 4.36749 55.5374 9.71312 55.5374H17.106L16.9468 60.0641C16.9013 61.9066 17.8794 63.5899 19.5172 64.4543C20.2224 64.8183 20.9731 65.0003 21.7465 65.0003C22.7474 65.0003 23.7482 64.6591 24.5899 64.0221L35.8726 55.5374H48.8841C54.2297 55.5374 58.5972 51.1926 58.5972 45.8243V25.1856L54.1683 23.3954ZM30.4291 39.5005H18.489C17.3585 39.5005 16.4418 38.5838 16.4418 37.4532C16.4418 36.3227 17.3585 35.406 18.489 35.406H30.4291C31.5597 35.406 32.4764 36.3227 32.4764 37.4532C32.4764 38.5838 31.5597 39.5005 30.4291 39.5005ZM41.0135 29.1596H18.4936C17.3631 29.1596 16.4463 28.2428 16.4463 27.1123C16.4463 25.9817 17.3631 25.065 18.4936 25.065H41.0135C42.144 25.065 43.0607 25.9817 43.0607 27.1123C43.0607 28.2428 42.144 29.1596 41.0135 29.1596Z" fill="#EC4845"/>
<path d="M55.3517 0.65683L58.6478 5.93194L64.6826 7.43554C65.6835 7.68576 66.077 8.89592 65.4151 9.68753L61.4161 14.4508L61.8506 20.654C61.9234 21.6822 60.8929 22.4329 59.9353 22.0462L54.1688 19.7146L48.4023 22.0462C47.447 22.4329 46.4142 21.6845 46.487 20.654L46.9215 14.4508L42.9225 9.68753C42.2583 8.8982 42.6541 7.68576 43.655 7.43554L49.6899 5.93194L52.9859 0.65683C53.5296 -0.218943 54.8057 -0.218943 55.3517 0.65683Z" fill="#EC4845"/>
</svg>
