<svg width="153" height="46" viewBox="0 0 153 46" fill="none" xmlns="http://www.w3.org/2000/svg">
<path d="M99.0749 10.6387C92.351 10.6707 86.8736 16.1509 86.9044 22.9742C86.9353 29.7976 92.4675 35.2262 99.1915 35.1956C105.915 35.165 111.394 29.6835 111.362 22.8629C111.33 16.0423 105.799 10.6095 99.0721 10.6415L99.0749 10.6387ZM99.1676 30.1915C97.2613 30.2027 95.4294 29.4608 94.0748 28.1315C92.7202 26.8021 91.9692 24.9912 91.9481 23.1009C91.9271 21.2106 92.6851 19.3941 94.0257 18.0509C95.3662 16.7077 97.1925 15.963 99.0988 15.9421C101.005 15.9212 102.837 16.6729 104.192 18.0022C105.546 19.3315 106.297 21.1424 106.318 23.0327C106.338 26.8258 102.991 30.1721 99.1676 30.1915ZM126.316 16.4223C122.8 16.439 120.061 19.3315 120.078 22.8183L120.134 34.4899L114.783 34.515L114.675 11.3208L120.026 11.2957L120.044 14.9329C120.044 14.9329 122.318 11.286 126.906 11.2651L128.436 11.2568L128.461 16.4098L126.316 16.4223ZM72.9371 11.5184L76.9884 27.4174L81.194 11.4795L86.5451 11.4558L79.925 34.6945L74.7283 34.7182L70.5255 18.5186L66.4743 34.7558L61.2762 34.7794L54.2883 11.6173L59.485 11.5936L64.1455 27.4898L67.8935 11.5546L72.9371 11.5184ZM144.072 21.7994C147.729 19.6614 150.312 15.7068 150.291 11.1593L144.94 11.1844C144.959 15.1264 141.762 18.3251 137.941 18.339L137.176 18.3418L137.091 0L131.74 0.0250547L131.904 34.4342L137.253 34.4106L137.202 23.4976L137.813 23.4948C138.425 23.4921 139.038 23.7927 139.194 24.2465L146.732 34.366L153 34.3382L144.072 21.7994Z" fill="#4B4B4B"/>
<path d="M41.9019 10.906C36.0946 10.9338 31.6784 14.7436 30.0262 20.8139C27.2538 16.5824 25.0906 11.7425 23.8497 7.65576L17.7364 7.6836L17.8122 23.751C17.8189 25.2786 17.2136 26.7464 16.1294 27.8317C15.0452 28.917 13.5707 29.531 12.0301 29.5387C10.4895 29.5454 9.00932 28.9452 7.91483 27.8701C6.82034 26.795 6.20114 25.3329 6.19334 23.8052L6.11613 7.73789L0 7.76573L0.075803 23.8331C0.108089 30.5006 5.48024 35.7844 12.0554 35.7524C18.6306 35.7204 23.9564 30.3906 23.9255 23.7217L23.9115 20.9935C25.144 23.4113 26.6853 25.9809 28.3796 28.2484L24.6414 46L30.9077 45.9722L33.6029 33.0743C36.0553 34.5804 38.7968 35.4754 42.0198 35.4601C48.7466 35.4281 54.2254 29.948 54.1903 22.9742C54.1648 19.7612 52.8584 16.6887 50.5564 14.4274C48.2543 12.1661 45.1436 10.8997 41.9033 10.9046L41.9019 10.906ZM41.9889 29.2478C39.5436 29.2589 37.0941 28.2094 35.0993 26.5502L35.6987 24.124V23.9848C36.1479 21.4041 37.4984 17.0028 42.0858 16.9833C43.7033 16.9806 45.2564 17.6115 46.4071 18.7388C47.5578 19.866 48.213 21.3982 48.23 23.0021C48.0924 26.4889 45.2021 29.2311 41.9903 29.2464L41.9889 29.2478Z" fill="#6FDA44"/>
</svg>
